<svg height="953" viewBox="0 0 914 953" width="914" xmlns="http://www.w3.org/2000/svg"><g fill="none" fill-rule="evenodd"><path d="m0 0h914v953h-914z" fill="#f2093d"/><path d="m314 740c145.803174 0 264-118.420684 264-264.5s-118.196826-264.5-264-264.5" fill="#ff3562" transform="matrix(-1 0 0 -1 892 951)"/><path d="m847 854c16.568542 0 30-13.655315 30-30.5s-13.431458-30.5-30-30.5" fill="#fff" transform="matrix(-1 0 0 -1 1724 1647)"/><path d="m881 844c11.045695 0 20-8.730447 20-19.5s-8.954305-19.5-20-19.5" fill="#000"/><path d="m104.582 101.462v83.538h-15.912v-35.139h-35.139v35.139h-15.912v-83.538h15.912v33.15h35.139v-33.15z" fill="#e20a3a"/><path d="m38 135h16v51h-16z" fill="#000"/><path d="m89 102h16v83h-16z" fill="#fff"/></g></svg>