<svg height="953" viewBox="0 0 914 953" width="914" xmlns="http://www.w3.org/2000/svg"><g fill="none" fill-rule="evenodd"><path d="m0 0h914v953h-914z" fill="#4c1cbc"/><path d="m819 81h14v73h-14z" fill="#58e4c9"/><path d="m498.307179 387.307179h263c0 145.803174-117.749111 264-263 264-145.25089 0-263-118.196826-263-264z" fill="#59e5ca" transform="matrix(.70710678 -.70710678 .70710678 .70710678 -221.254834 504.457937)"/><g fill="#4c1cbc" fill-opacity=".01"><path d="m913 0h1v1h-1z"/><path d="m0 952h1v1h-1z"/></g><g stroke-width="13.86"><circle cx="73.5" cy="779.5" r="24.5" stroke="#40199c"/><path d="m74 804c13.8071187 0 25-10.969024 25-24.5s-11.1928813-24.5-25-24.5" stroke="#000"/><path d="m69.6629509 812.325902c13.8071187 0 25-10.969024 25-24.5 0-13.530977-11.1928813-24.5-25-24.5" opacity=".365141" stroke="#000" transform="matrix(.70710678 .70710678 -.70710678 .70710678 581.142009 172.650884)"/></g></g></svg>