<svg height="543" viewBox="0 0 394 543" width="394" xmlns="http://www.w3.org/2000/svg"><g fill="none" fill-rule="evenodd"><path d="m0 0h394v543h-394z" fill="#4a40fd"/><path d="m55.3632812 471c.9609376 0 1.8769532-.195312 2.7480469-.585938.8710938-.390624 1.6347657-.929687 2.2910157-1.617187s1.1796874-1.488281 1.5703124-2.402344c.390625-.914062.5859376-1.898437.5859376-2.953125 0-1.054687-.1953126-2.039062-.5859376-2.953125-.390625-.914062-.9140624-1.714843-1.5703124-2.402343s-1.4199219-1.226563-2.2910157-1.617188c-.8710937-.390625-1.7871093-.585938-2.7480469-.585938h-4.5585937v15.117188zm0-2.15625h-2.2851562v-10.804688h2.2851562c.625 0 1.2324219.136719 1.8222657.410157.5898437.273437 1.1132812.65039 1.5703125 1.130859.4570312.480469.8261718 1.048828 1.1074218 1.705078s.421875 1.375.421875 2.15625-.140625 1.5-.421875 2.15625-.6503906 1.22461-1.1074218 1.705078c-.4570313.480469-.9804688.857422-1.5703125 1.13086-.5898438.273437-1.1972657.410156-1.8222657.410156zm13.8771028 2.273438c.625 0 1.1894531-.083985 1.6933594-.251954.5039062-.167968.9472656-.40039 1.3300781-.697265s.7109375-.640625.984375-1.03125.5-.808594.6796875-1.253907h-2.2851562c-.171875.234376-.4511719.492188-.8378907.773438-.3867187.28125-.9082031.421875-1.5644531.421875-.3828125 0-.7460937-.068359-1.0898437-.205078s-.6386719-.320313-.8847657-.550781c-.2460937-.230469-.4511718-.498047-.6152343-.802735-.1640625-.304687-.2617188-.625-.2929688-.960937h7.6875c.015625-.078125.03125-.171875.046875-.28125.015625-.085938.03125-.189453.046875-.310547s.0234375-.244141.0234375-.369141c0-.8125-.1328125-1.554687-.3984375-2.226562s-.625-1.251953-1.078125-1.740235c-.453125-.488281-.9882812-.86914-1.6054687-1.142578-.6171875-.273437-1.2695313-.410156-1.9570313-.410156s-1.3398437.136719-1.9570312.410156c-.6171875.273438-1.1523438.654297-1.6054688 1.142578-.453125.488282-.8125 1.06836-1.078125 1.740235s-.3984375 1.414062-.3984375 2.226562c0 .820313.1328125 1.566406.3984375 2.238282.265625.671874.6328125 1.251953 1.1015625 1.740234s1.015625.867187 1.640625 1.136719c.625.269531 1.296875.404297 2.015625.404297zm2.8828125-6.351563h-5.765625c.1328125-.789063.4472656-1.427734.9433594-1.916016.4960937-.488281 1.1035156-.732421 1.8222656-.732421.8515625 0 1.5332031.246093 2.0449219.738281.5117187.492187.8300781 1.128906.9550781 1.910156zm7.5255402 6.351563c1.265625 0 2.2421875-.31836 2.9296875-.955079.6875-.636718 1.03125-1.435547 1.03125-2.396484 0-.640625-.1445312-1.150391-.4335937-1.529297s-.6464844-.679687-1.0722656-.902344c-.4257813-.222656-.8847657-.394531-1.3769532-.515625-.4921875-.121093-.9511718-.236328-1.3769531-.345703-.4257812-.109375-.7832031-.248047-1.0722656-.416015-.2890625-.167969-.4335938-.41211-.4335938-.732422 0-.304688.1445313-.582031.4335938-.832031s.7070312-.375 1.2539062-.375c.5390625 0 .9570313.128906 1.2539063.386718.296875.257813.4765625.570313.5390625.9375h2.1679687c-.0703125-1.023437-.4316406-1.839844-1.0839843-2.449218-.6523438-.609376-1.6113282-.914063-2.8769532-.914063-.578125 0-1.0957031.083984-1.5527343.251953-.4570313.167969-.8457032.400391-1.1660157.697266s-.5683593.642578-.7441406 1.037109c-.1757812.394531-.2636719.814453-.2636719 1.259766 0 .640625.1445313 1.148437.4335938 1.523437s.6445312.673828 1.0664062.896485c.421875.222656.8808594.394531 1.3769532.515625.4960937.121093.9570312.238281 1.3828125.351562.4257812.113281.7832031.253906 1.0722656.421875s.4335937.412109.4335937.732422c0 .367187-.1523437.677734-.4570312.931641-.3046875.253906-.7929688.380859-1.4648438.380859-.609375 0-1.0664062-.140625-1.3710937-.421875s-.4882813-.660156-.5507813-1.136719h-2.15625c.0625 1.148438.4257813 2.035157 1.0898438 2.660157s1.6601562.9375 2.9882812.9375zm7.0450716-12.597657c.3671875 0 .6796875-.128906.9375-.386719.2578125-.257812.3867187-.570312.3867187-.9375 0-.367187-.1289062-.677734-.3867187-.93164s-.5703125-.38086-.9375-.38086-.6796875.126954-.9375.38086-.3867188.564453-.3867188.93164c0 .375.1289063.689454.3867188.94336s.5703125.380859.9375.380859zm1.078125 12.480469v-10.804688h-2.15625v10.804688zm7.1739777 4.078125c.75 0 1.4296875-.111328 2.0390625-.333984.609375-.222657 1.125-.539063 1.546875-.949219s.75-.894531.984375-1.453125.3515625-1.166016.3515625-1.822266v-10.324219h-1.5585938l-.4804687 1.089844c-.2109375-.226562-.4609375-.429687-.75-.609375-.25-.140625-.5703125-.27539-.9609375-.404297-.390625-.128906-.859375-.193359-1.40625-.193359-.65625 0-1.2851563.136719-1.8867188.410156-.6015625.273438-1.1269531.646485-1.5761718 1.119141-.4492188.472656-.8046875 1.029297-1.0664063 1.669922-.2617187.640625-.3925781 1.335937-.3925781 2.085937s.1308594 1.445313.3925781 2.085938c.2617188.640625.6171875 1.197265 1.0664063 1.669922.4492187.472656.9746093.84375 1.5761718 1.113281s1.2304688.404297 1.8867188.404297c.5078125 0 .9453125-.060547 1.3125-.181641s.6796875-.259766.9375-.416016c.2890625-.171874.5390625-.371093.75-.597656v1.078125c0 .78125-.2480469 1.416016-.7441406 1.904297-.4960938.488281-1.1699219.732422-2.0214844.732422-.71875 0-1.2734375-.148438-1.6640625-.445312-.390625-.296876-.6757813-.628907-.8554688-.996094h-2.15625c.109375.453125.2929688.882812.5507813 1.289062s.5820312.761719.9726562 1.066406c.390625.304688.8496094.548829 1.3769532.732422.5273437.183594 1.1191406.275391 1.7753906.275391zm.0234375-6.480469c-.3984375 0-.7773438-.083984-1.1367188-.251953s-.6796875-.400391-.9609375-.697265c-.28125-.296876-.5058593-.640626-.6738281-1.03125-.1679687-.390626-.2519531-.808594-.2519531-1.253907 0-.453125.0839844-.875.2519531-1.265625.1679688-.390625.3886719-.734375.6621094-1.03125s.59375-.529297.9609375-.697265c.3671875-.167969.7421875-.251953 1.125-.251953s.7578125.083984 1.125.251953c.3671875.167968.6875.40039.9609375.697265s.4941406.642578.6621094 1.03711c.1679687.394531.2519531.814453.2519531 1.259765 0 .445313-.0839844.863281-.2519531 1.253907-.1679688.390624-.3886719.734374-.6621094 1.03125-.2734375.296874-.5898438.529296-.9492188.697265s-.7304687.251953-1.1132812.251953zm9.6583525 2.402344v-6.234375c0-.359375.06836-.697266.205078-1.013672.136719-.316406.324219-.595703.5625-.837891.238282-.242187.517579-.435546.837891-.580078.320313-.144531.664063-.216796 1.03125-.216796.335938 0 .65625.072265.960938.216796.304687.144532.574218.337891.808593.580078.234375.242188.419922.523438.556641.84375.136719.320313.205078.65625.205078 1.007813v6.234375h2.15625v-6.234375c0-.695313-.113281-1.330078-.339844-1.904297-.226562-.574219-.535156-1.064453-.925781-1.470703s-.849609-.726563-1.376953-.960937c-.527344-.234376-1.087891-.351563-1.681641-.351563-.546875 0-1.015625.064453-1.40625.193359-.390625.128907-.714843.263672-.972656.404297-.28125.179688-.527344.382813-.738281.609375l-.480469-1.089844h-1.558594v10.804688zm18.297174.117188c1.265625 0 2.242188-.31836 2.929688-.955079.6875-.636718 1.03125-1.435547 1.03125-2.396484 0-.640625-.144531-1.150391-.433594-1.529297-.289062-.378906-.646484-.679687-1.072265-.902344-.425782-.222656-.884766-.394531-1.376954-.515625-.492187-.121093-.951171-.236328-1.376953-.345703-.425781-.109375-.783203-.248047-1.072265-.416015-.289063-.167969-.433594-.41211-.433594-.732422 0-.304688.144531-.582031.433594-.832031.289062-.25.707031-.375 1.253906-.375.539062 0 .957031.128906 1.253906.386718.296875.257813.476563.570313.539063.9375h2.167968c-.070312-1.023437-.43164-1.839844-1.083984-2.449218-.652344-.609376-1.611328-.914063-2.876953-.914063-.578125 0-1.095703.083984-1.552734.251953-.457032.167969-.845704.400391-1.166016.697266-.320313.296875-.568359.642578-.744141 1.037109-.175781.394531-.263672.814453-.263672 1.259766 0 .640625.144532 1.148437.433594 1.523437.289063.375.644531.673828 1.066406.896485.421875.222656.88086.394531 1.376954.515625.496093.121093.957031.238281 1.382812.351562s.783203.253906 1.072266.421875c.289062.167969.433593.412109.433593.732422 0 .367187-.152343.677734-.457031.931641-.304687.253906-.792969.380859-1.464844.380859-.609375 0-1.066406-.140625-1.371093-.421875-.304688-.28125-.488282-.660156-.550782-1.136719h-2.15625c.0625 1.148438.425782 2.035157 1.089844 2.660157.664063.625 1.660156.9375 2.988281.9375zm7.291166 3.84375c.414062 0 .785156-.056641 1.113281-.169922.328125-.113282.626953-.296875.896484-.550782.269532-.253906.519532-.585937.75-.996093.230469-.410157.466797-.919922.708985-1.529297l4.570312-11.519532h-2.285156l-3 7.804688-3-7.804688h-2.285156l4.207031 10.441407-.363281 1.078125c-.125.375-.34375.689453-.65625.943359s-.773438.380859-1.382813.380859v1.804688c.070313.03125.144531.054688.222656.070312.078125.015626.158204.027344.240235.035157.082031.007812.169922.011719.263672.011719zm12.927884-3.84375c1.265625 0 2.242187-.31836 2.929687-.955079.6875-.636718 1.03125-1.435547 1.03125-2.396484 0-.640625-.144531-1.150391-.433594-1.529297-.289062-.378906-.646484-.679687-1.072265-.902344-.425781-.222656-.884766-.394531-1.376953-.515625-.492188-.121093-.951172-.236328-1.376953-.345703-.425782-.109375-.783204-.248047-1.072266-.416015-.289063-.167969-.433594-.41211-.433594-.732422 0-.304688.144531-.582031.433594-.832031.289062-.25.707031-.375 1.253906-.375.539063 0 .957031.128906 1.253906.386718.296875.257813.476563.570313.539063.9375h2.167969c-.070313-1.023437-.431641-1.839844-1.083985-2.449218-.652343-.609376-1.611328-.914063-2.876953-.914063-.578125 0-1.095703.083984-1.552734.251953s-.845703.400391-1.166016.697266c-.320312.296875-.568359.642578-.74414 1.037109-.175782.394531-.263672.814453-.263672 1.259766 0 .640625.144531 1.148437.433593 1.523437.289063.375.644532.673828 1.066407.896485.421875.222656.880859.394531 1.376953.515625.496094.121093.957031.238281 1.382812.351562.425782.113281.783203.253906 1.072266.421875.289062.167969.433594.412109.433594.732422 0 .367187-.152344.677734-.457032.931641-.304687.253906-.792968.380859-1.464843.380859-.609375 0-1.066407-.140625-1.371094-.421875-.304688-.28125-.488281-.660156-.550781-1.136719h-2.15625c.0625 1.148438.425781 2.035157 1.089843 2.660157.664063.625 1.660157.9375 2.988282.9375zm10.291165 0c.328125 0 .613281-.039063.855469-.117188.132812-.03125.246094-.070312.339844-.117188v-1.921874c-.070313.03125-.144532.054687-.222657.070312s-.162109.027344-.251953.035156c-.089844.007813-.173828.011719-.251953.011719-.476562 0-.875-.160156-1.195312-.480469-.320313-.320312-.480469-.71875-.480469-1.195312v-5.167969h2.402344v-2.039063h-2.402344v-2.871093h-1.792969v1.441406c0 .414063-.136719.755859-.410156 1.025391-.273438.269531-.617188.404296-1.03125.404296h-.84375v2.039063h1.921875v5.167969c0 .578125.083984 1.09375.251953 1.546875s.404297.839843.708984 1.160156c.304688.320313.66211.568359 1.072266.744141.410156.175781.853516.263672 1.330078.263672zm7.888822 0c.625 0 1.189453-.083985 1.693359-.251954.503906-.167968.947266-.40039 1.330078-.697265.382813-.296875.710938-.640625.984375-1.03125.273438-.390625.5-.808594.679688-1.253907h-2.285157c-.171875.234376-.451172.492188-.83789.773438-.386719.28125-.908203.421875-1.564453.421875-.382813 0-.746094-.068359-1.089844-.205078s-.638672-.320313-.884766-.550781c-.246094-.230469-.451172-.498047-.615234-.802735-.164063-.304687-.261719-.625-.292969-.960937h7.6875c.015625-.078125.03125-.171875.046875-.28125.015625-.085938.03125-.189453.046875-.310547s.023438-.244141.023438-.369141c0-.8125-.132813-1.554687-.398438-2.226562s-.625-1.251953-1.078125-1.740235c-.453125-.488281-.988281-.86914-1.605469-1.142578-.617187-.273437-1.269531-.410156-1.957031-.410156s-1.339844.136719-1.957031.410156c-.617188.273438-1.152344.654297-1.605469 1.142578-.453125.488282-.8125 1.06836-1.078125 1.740235s-.398437 1.414062-.398437 2.226562c0 .820313.132812 1.566406.398437 2.238282.265625.671874.632813 1.251953 1.101563 1.740234s1.015625.867187 1.640625 1.136719c.625.269531 1.296875.404297 2.015625.404297zm2.882812-6.351563h-5.765625c.132813-.789063.447266-1.427734.943359-1.916016.496094-.488281 1.103516-.732421 1.822266-.732421.851563 0 1.533203.246093 2.044922.738281.511719.492187.830078 1.128906.955078 1.910156zm6.201322 6.234375v-6.480469c0-.71875.203125-1.298828.609375-1.740234s.882812-.662109 1.429687-.662109 1.023438.220703 1.429688.662109.609375 1.021484.609375 1.740234v6.480469h2.167968v-6.480469c0-.71875.203125-1.298828.609375-1.740234s.882813-.662109 1.429688-.662109c.539062 0 1.013672.220703 1.423828.662109s.615234 1.021484.615234 1.740234v6.480469h2.15625v-6.480469c0-.6875-.099609-1.30664-.298828-1.857422-.199219-.550781-.466797-1.019531-.802734-1.40625-.335938-.386718-.726563-.679687-1.171875-.878906-.445313-.199219-.925781-.298828-1.441406-.298828-.546875 0-1.019532.087891-1.417969.263672-.398438.175781-.734375.373047-1.007813.591797-.273437.21875-.476562.410156-.609375.574218-.140625.171876-.210937.257813-.210937.257813-.203125-.304687-.449219-.585937-.738281-.84375-.257813-.210937-.570313-.404297-.9375-.580078-.367188-.175781-.808594-.263672-1.324219-.263672-.414063 0-.785156.064453-1.113281.193359-.328125.128907-.605469.263672-.832032.404297-.265625.179688-.496093.382813-.691406.609375l-.480469-1.089844h-1.558593v10.804688z" fill="#fff" fill-rule="nonzero"/><path d="m123 63h66v27h-66z" fill="#44c2ff"/><path d="m189 90h66v27h-66z" fill="#ffd753"/><path d="m123 118h66v27h-66z" fill="#ffc1c1"/><path d="m255 118h66v27h-66z" fill="#f22f2d"/><path d="m189 145h66v27h-66z" fill="#1e179f"/><path d="m49 174h66v27h-66z" fill="#f22f2d"/><path d="m189 208h66v27h-66z" fill="#fff"/></g></svg>