<svg height="449" viewBox="0 0 360 449" width="360" xmlns="http://www.w3.org/2000/svg"><g fill="none" fill-rule="evenodd"><path d="m0 0h360v449h-360z" fill="#ffd753"/><ellipse cx="71.735974" cy="71.453437" fill="#f2093d" rx="71.047451" ry="71.735974" transform="matrix(0 1 -1 0 194.189411 159.717463)"/><ellipse cx="207.871287" cy="108.398111" fill="#4a40fd" rx="38.162631" ry="38.721122" transform="matrix(0 1 -1 0 367.269398 60.526824)"/><ellipse cx="139.80363" cy="179.039577" fill="#44c2ff" rx="23.953141" ry="24.047855" transform="matrix(0 1 -1 0 369.843207 199.235947)"/><path d="m152.652371 102.545837 4.871825-17.526403" stroke="#d1a822" stroke-linecap="square" stroke-width="1.104" transform="matrix(0 1 -1 0 299.87092 98.694352)"/><path d="m111.715185 150.23548 17.863359-10.597359" stroke="#d1a822" stroke-linecap="square" stroke-width="1.104" transform="matrix(0 1 -1 0 316.583665 184.289935)"/><path d="m212.921875 60c.6875 0 1.322266-.1191406 1.904297-.3574219.582031-.2382812 1.089844-.5546875 1.523437-.9492187.433594-.3945313.769532-.8515625 1.007813-1.3710938.238281-.5195312.357422-1.0683594.357422-1.6464844 0-.671875-.111328-1.2382812-.333985-1.6992187-.222656-.4609375-.470703-.84375-.74414-1.1484375-.320313-.3515625-.679688-.640625-1.078125-.8671875.289062-.1953125.546875-.4375.773437-.7265625.1875-.234375.365235-.5332031.533203-.8964844.167969-.3632812.251954-.7832031.251954-1.2597656 0-.578125-.111329-1.1191406-.333985-1.6230469-.222656-.5039062-.529297-.9472656-.919922-1.3300781s-.849609-.6855469-1.376953-.9082031c-.527344-.2226563-1.08789-.3339844-1.68164-.3339844h-6v15.1171875zm-.117187-8.8828125h-3.726563v-4.078125h3.726563c.601562 0 1.111328.203125 1.529296.609375.417969.40625.626954.8828125.626954 1.4296875s-.207032 1.0234375-.621094 1.4296875c-.414063.40625-.925782.609375-1.535156.609375zm.117187 6.7265625h-3.84375v-4.8046875h3.84375c.351563 0 .683594.0644531.996094.1933594.3125.1289062.580078.3007812.802734.515625.222656.2148437.398438.4667969.527344.7558593.128906.2890626.193359.6015626.193359.9375 0 .3359376-.064453.6484376-.193359.9375-.128906.2890626-.304688.5410157-.527344.7558594-.222656.2148438-.490234.3867188-.802734.515625-.3125.1289063-.644531.1933594-.996094.1933594zm8.966947 2.15625v-6.1171875c0-.3515625.068359-.6875.205078-1.0078125.136718-.3203125.324218-.6015625.5625-.84375.238281-.2421875.517578-.4355469.83789-.5800781.320313-.1445313.664063-.2167969 1.03125-.2167969.085938 0 .171875.0097656.257813.0292969.085937.0195312.167969.0371093.246094.0527343.085937.015625.160156.03125.222656.046875v-2.1679687c-.0625-.015625-.125-.03125-.1875-.046875-.070313-.015625-.146485-.03125-.228516-.046875s-.185547-.0234375-.310547-.0234375c-.460937 0-.863281.0644531-1.207031.1933594-.34375.1289062-.628906.2636718-.855469.4042968-.265625.1796876-.496093.3828126-.691406.609375l-.480469-1.0898437h-1.558593v10.8046875zm8.123196.1171875c.546875 0 1.015625-.0605469 1.40625-.1816406.390625-.1210938.714844-.2597657.972656-.4160157.289063-.171875.539063-.3710937.75-.5976562l.480469 1.078125h1.558594v-7.078125c0-.546875-.101563-1.0527344-.304688-1.5175781-.203125-.4648438-.488281-.8691407-.855468-1.2128907-.367188-.34375-.810547-.6152343-1.330079-.8144531-.519531-.1992187-1.091796-.2988281-1.716796-.2988281-1.328125 0-2.363282.3203125-3.105469.9609375-.742188.640625-1.144531 1.4414063-1.207031 2.4023437h2.15625c.0625-.3671874.257812-.6796874.585937-.9375.328125-.2578124.851563-.3867187 1.570313-.3867187.671875 0 1.179687.1640625 1.523437.4921875s.515625.765625.515625 1.3125v.3632812c-1.328125 0-2.423828.0878907-3.287109.2636719-.863282.1757813-1.546875.4179688-2.050782.7265625-.503906.3085938-.859375.6835938-1.066406 1.125-.207031.4414063-.310547.9355469-.310547 1.4824219 0 .9609375.31836 1.7402344.955078 2.3378906.636719.5976563 1.556641.8964844 2.759766.8964844zm.128906-1.921875c-.546875 0-.964843-.1230469-1.253906-.3691406-.289062-.2460938-.433594-.5214844-.433594-.8261719 0-.2734375.056641-.5214844.169922-.7441406.113281-.2226563.337891-.4101563.673828-.5625.335938-.1523438.798828-.2734375 1.388672-.3632813.589844-.0898437 1.365235-.1347656 2.326172-.1347656v.5859375c0 .671875-.25 1.2421875-.75 1.7109375s-1.207031.703125-2.121094.703125zm9.681791 1.8046875v-6.234375c0-.359375.068359-.6972656.205078-1.0136719.136718-.3164062.324218-.5957031.5625-.8378906.238281-.2421875.517578-.4355469.83789-.5800781.320313-.1445313.664063-.2167969 1.03125-.2167969.335938 0 .65625.0722656.960938.2167969.304687.1445312.574219.3378906.808594.5800781s.419921.5234375.55664.84375.205078.65625.205078 1.0078125v6.234375h2.15625v-6.234375c0-.6953125-.113281-1.3300781-.339843-1.9042969-.226563-.5742187-.535157-1.0644531-.925782-1.4707031s-.849609-.7265625-1.376953-.9609375-1.08789-.3515625-1.68164-.3515625c-.546875 0-1.015625.0644531-1.40625.1933594-.390625.1289062-.714844.2636718-.972657.4042968-.28125.1796876-.527343.3828126-.738281.609375l-.480469-1.0898437h-1.558593v10.8046875zm14.36929.1171875c.546875 0 1.015625-.0605469 1.40625-.1816406.390625-.1210938.714844-.2597657.972656-.4160157.28125-.171875.527344-.3710937.738281-.5976562l.480469 1.078125h1.558594v-15.1171875h-2.15625v5.4023437c-.203125-.2265624-.449219-.4296874-.738281-.609375-.257813-.140625-.570313-.2753906-.937501-.4042968-.367187-.1289063-.808593-.1933594-1.324218-.1933594-.71875 0-1.390625.1367188-2.015625.4101562-.625.2734376-1.173828.6542969-1.646485 1.1425782-.472656.4882812-.839843 1.0683594-1.101562 1.7402344s-.392578 1.4140624-.392578 2.2265624c0 .8203126.130859 1.5664063.392578 2.2382813s.628906 1.2519531 1.101562 1.7402344c.472657.4882812 1.021485.8671875 1.646485 1.1367187.625.2695313 1.296875.4042969 2.015625.4042969zm.117187-2.0390625c-.414062 0-.808594-.0839844-1.183594-.2519531-.375-.1679688-.707031-.4082031-.996093-.7207031-.289063-.3125-.517578-.6796876-.685547-1.1015626s-.251953-.890625-.251953-1.40625c0-.5078124.083984-.9746093.251953-1.4003906.167969-.4257812.396484-.7949218.685547-1.1074218.289062-.3125.621093-.5527344.996093-.7207032.375-.1679687.769532-.2519531 1.183594-.2519531.414063 0 .810547.0839844 1.189453.2519531.378907.1679688.710938.4082032.996094.7207032s.511719.6796874.679688 1.1015624c.167968.421875.251953.890625.251953 1.40625s-.083985.984375-.251953 1.40625c-.167969.421875-.394532.7890626-.679688 1.1015626s-.617187.5527343-.996094.7207031c-.378906.1679687-.77539.2519531-1.189453.2519531zm-44.387317 29.0390625c1.265625 0 2.242187-.3183594 2.929687-.9550781.6875-.6367188 1.03125-1.4355469 1.03125-2.3964844 0-.640625-.144531-1.1503906-.433593-1.5292969-.289063-.3789062-.646485-.6796875-1.072266-.9023437-.425781-.2226563-.884765-.3945313-1.376953-.515625-.492188-.1210938-.951172-.2363282-1.376953-.3457032s-.783203-.2480468-1.072266-.4160156c-.289062-.1679687-.433593-.4121094-.433593-.7324218 0-.3046876.144531-.5820313.433593-.8320313.289063-.25.707031-.375 1.253907-.375.539062 0 .957031.1289063 1.253906.3867187.296875.2578126.476562.5703126.539062.9375h2.167969c-.070313-1.0234374-.431641-1.8398437-1.083984-2.4492187-.652344-.609375-1.611329-.9140625-2.876953-.9140625-.578126 0-1.095704.0839844-1.552735.2519531-.457031.1679688-.845703.4003907-1.166015.6972657-.320313.296875-.56836.6425781-.744141 1.0371093-.175781.3945313-.263672.8144531-.263672 1.2597657 0 .640625.144531 1.1484374.433594 1.5234374.289062.375.644531.6738282 1.066406.8964844.421875.2226563.880859.3945313 1.376953.515625.496094.1210938.957031.2382813 1.382813.3515625.425781.1132813.783203.2539063 1.072265.421875.289063.1679688.433594.4121094.433594.7324219 0 .3671875-.152344.6777344-.457031.9316406-.304688.2539063-.792969.3808594-1.464844.3808594-.609375 0-1.066406-.140625-1.371094-.421875-.304687-.28125-.488281-.6601562-.550781-1.1367188h-2.15625c.0625 1.1484376.425781 2.0351563 1.089844 2.6601563.664062.625 1.660156.9375 2.988281.9375zm10.291165 0c.328125 0 .613282-.0390625.855469-.1171875.132813-.03125.246094-.0703125.339844-.1171875v-1.921875c-.070313.03125-.144531.0546875-.222656.0703125s-.16211.0273438-.251954.0351562c-.089843.0078126-.173828.0117188-.251953.0117188-.476562 0-.875-.1601562-1.195312-.4804688-.320313-.3203124-.480469-.71875-.480469-1.1953124v-5.1679688h2.402344v-2.0390625h-2.402344v-2.8710937h-1.792969v1.4414062c0 .4140625-.136718.7558594-.410156 1.0253906-.273437.2695313-.617187.4042969-1.03125.4042969h-.84375v2.0390625h1.921875v5.1679688c0 .578125.083984 1.09375.251953 1.546875s.404297.8398437.708985 1.1601562c.304687.3203125.662109.5683594 1.072265.7441406.410156.1757813.853516.2636719 1.330078.2636719zm5.603666-.1171875v-6.1171875c0-.3515625.068359-.6875.205078-1.0078125.136718-.3203125.324218-.6015625.5625-.84375.238281-.2421875.517578-.4355469.83789-.5800781.320313-.1445313.664063-.2167969 1.03125-.2167969.085938 0 .171875.0097656.257813.0292969.085937.0195312.167969.0371093.246094.0527343.085937.015625.160156.03125.222656.046875v-2.1679687c-.0625-.015625-.125-.03125-.1875-.046875-.070313-.015625-.146485-.03125-.228516-.046875s-.185547-.0234375-.310547-.0234375c-.460937 0-.863281.0644531-1.207031.1933594-.34375.1289062-.628906.2636718-.855469.4042968-.265625.1796876-.496093.3828126-.691406.609375l-.480469-1.0898437h-1.558593v10.8046875zm8.123196.1171875c.546875 0 1.015625-.0605469 1.40625-.1816406.390625-.1210938.714844-.2597657.972656-.4160157.289063-.171875.539063-.3710937.75-.5976562l.480469 1.078125h1.558594v-7.078125c0-.546875-.101563-1.0527344-.304688-1.5175781-.203125-.4648438-.488281-.8691407-.855468-1.2128907-.367188-.34375-.810547-.6152343-1.330079-.8144531-.519531-.1992187-1.091797-.2988281-1.716797-.2988281-1.328125 0-2.363281.3203125-3.105468.9609375-.742188.640625-1.144532 1.4414063-1.207032 2.4023437h2.15625c.0625-.3671874.257813-.6796874.585938-.9375.328125-.2578124.851562-.3867187 1.570312-.3867187.671875 0 1.179688.1640625 1.523438.4921875s.515625.765625.515625 1.3125v.3632812c-1.328125 0-2.423828.0878907-3.287109.2636719-.863282.1757813-1.546875.4179688-2.050782.7265625-.503906.3085938-.859375.6835938-1.066406 1.125-.207031.4414063-.310547.9355469-.310547 1.4824219 0 .9609375.31836 1.7402344.955078 2.3378906.636719.5976563 1.556641.8964844 2.759766.8964844zm.128906-1.921875c-.546875 0-.964844-.1230469-1.253906-.3691406-.289063-.2460938-.433594-.5214844-.433594-.8261719 0-.2734375.056641-.5214844.169922-.7441406.113281-.2226563.337891-.4101563.673828-.5625.335938-.1523438.798828-.2734375 1.388672-.3632813.589844-.0898437 1.365234-.1347656 2.326172-.1347656v.5859375c0 .671875-.25 1.2421875-.75 1.7109375s-1.207031.703125-2.121094.703125zm11.615384 1.921875c.328125 0 .613281-.0390625.855469-.1171875.132812-.03125.246094-.0703125.339844-.1171875v-1.921875c-.070313.03125-.144532.0546875-.222657.0703125s-.162109.0273438-.251953.0351562c-.089843.0078126-.173828.0117188-.251953.0117188-.476562 0-.875-.1601562-1.195312-.4804688-.320313-.3203124-.480469-.71875-.480469-1.1953124v-5.1679688h2.402344v-2.0390625h-2.402344v-2.8710937h-1.792969v1.4414062c0 .4140625-.136719.7558594-.410156 1.0253906-.273438.2695313-.617188.4042969-1.03125.4042969h-.84375v2.0390625h1.921875v5.1679688c0 .578125.083984 1.09375.251953 1.546875s.404297.8398437.708984 1.1601562c.304688.3203125.66211.5683594 1.072266.7441406.410156.1757813.853516.2636719 1.330078.2636719zm7.888822 0c.625 0 1.189453-.0839844 1.693359-.2519531.503906-.1679688.947266-.4003906 1.330078-.6972656.382813-.296875.710938-.640625.984375-1.03125.273438-.390625.5-.8085938.679688-1.2539063h-2.285156c-.171875.234375-.451172.4921875-.837891.7734375s-.908203.421875-1.564453.421875c-.382813 0-.746094-.0683594-1.089844-.2050781-.34375-.1367188-.638672-.3203125-.884766-.5507813-.246093-.2304687-.451171-.4980468-.615234-.8027344-.164062-.3046874-.261719-.625-.292969-.9609374h7.6875c.015625-.078125.03125-.171875.046875-.28125.015625-.0859376.03125-.1894532.046875-.3105469.015625-.1210938.023438-.2441407.023438-.3691407 0-.8125-.132813-1.5546874-.398438-2.2265624s-.625-1.2519532-1.078125-1.7402344c-.453125-.4882813-.988281-.8691406-1.605468-1.1425782-.617188-.2734374-1.269532-.4101562-1.957032-.4101562s-1.339843.1367188-1.957031.4101562c-.617187.2734376-1.152344.6542969-1.605469 1.1425782-.453125.4882812-.8125 1.0683594-1.078125 1.7402344s-.398437 1.4140624-.398437 2.2265624c0 .8203126.132812 1.5664063.398437 2.2382813s.632813 1.2519531 1.101563 1.7402344c.46875.4882812 1.015625.8671875 1.640625 1.1367187.625.2695313 1.296875.4042969 2.015625.4042969zm2.882812-6.3515625h-5.765625c.132813-.7890625.447266-1.4277344.94336-1.9160156.496093-.4882813 1.103515-.7324219 1.822265-.7324219.851563 0 1.533203.2460937 2.044922.7382813.511719.4921874.830078 1.1289062.955078 1.9101562zm8.603665 10.3125c.75 0 1.429688-.1113281 2.039063-.3339844.609375-.2226562 1.125-.5390625 1.546875-.9492187.421875-.4101563.75-.8945313.984375-1.453125.234375-.5585938.351563-1.1660157.351563-1.8222657v-10.3242187h-1.558594l-.480469 1.0898437c-.210938-.2265624-.460938-.4296874-.75-.609375-.25-.140625-.570313-.2753906-.960938-.4042968-.390625-.1289063-.859375-.1933594-1.40625-.1933594-.65625 0-1.285156.1367188-1.886718.4101562-.601563.2734376-1.126953.6464844-1.576172 1.1191407-.449219.4726562-.804688 1.0292969-1.066406 1.6699219-.261719.640625-.392579 1.3359374-.392579 2.0859374s.13086 1.4453126.392579 2.0859376c.261718.640625.617187 1.1972656 1.066406 1.6699218.449219.4726563.974609.84375 1.576172 1.1132813.601562.2695312 1.230468.4042969 1.886718.4042969.507813 0 .945313-.0605469 1.3125-.1816407.367188-.1210937.679688-.2597656.9375-.4160156.289063-.171875.539063-.3710937.75-.5976563v1.078125c0 .78125-.248046 1.4160157-.74414 1.9042969-.496094.4882813-1.169922.7324219-2.021485.7324219-.71875 0-1.273437-.1484375-1.664062-.4453125s-.675781-.6289063-.855469-.9960937h-2.15625c.109375.453125.292969.8828124.550781 1.2890624.257813.40625.582032.7617188.972657 1.0664063s.849609.5488281 1.376953.7324219c.527344.1835937 1.11914.2753906 1.77539.2753906zm.023438-6.4804688c-.398438 0-.777344-.0839843-1.136719-.2519531-.359375-.1679687-.679687-.4003906-.960937-.6972656s-.50586-.640625-.673828-1.03125c-.167969-.390625-.251954-.8085937-.251954-1.2539063 0-.453125.083985-.875.251954-1.265625.167968-.390625.388671-.734375.662109-1.03125.273437-.296875.59375-.5292968.960937-.6972656.367188-.1679687.742188-.2519531 1.125-.2519531.382813 0 .757813.0839844 1.125.2519531.367188.1679688.6875.4003906.960938.6972656.273437.296875.494141.6425782.662109 1.0371094.167969.3945313.251953.8144532.251953 1.2597656 0 .4453126-.083984.8632813-.251953 1.2539063-.167968.390625-.388672.734375-.662109 1.03125-.273438.296875-.589844.5292969-.949219.6972656-.359375.1679688-.730469.2519531-1.113281.2519531zm8.826321 6.3632813c.414063 0 .785157-.0566406 1.113282-.1699219.328125-.1132812.626953-.296875.896484-.5507812.269531-.2539063.519531-.5859375.75-.9960938.230469-.4101562.466797-.9199218.708984-1.5292968l4.570313-11.5195313h-2.285156l-3 7.8046875-3-7.8046875h-2.285157l4.207032 10.4414063-.363282 1.078125c-.125.375-.34375.6894531-.65625.9433593-.3125.2539063-.773437.3808594-1.382812.3808594v1.8046875c.070312.03125.144531.0546875.222656.0703125s.158203.0273437.240235.0351563c.082031.0078124.169921.0117187.263671.0117187z" fill="#fff" fill-rule="nonzero"/></g></svg>