<svg height="449" viewBox="0 0 352 449" width="352" xmlns="http://www.w3.org/2000/svg"><g fill="none" fill-rule="evenodd"><path d="m0 0h352v449h-352z" fill="#44c2ff"/><g transform="translate(67 125)"><g fill="#fff"><path d="m156 75h65v6h-65z"/><path d="m156 93h65v6h-65z"/><path d="m156 112h65v6h-65z"/><path d="m156 131h42v6h-42z"/></g><ellipse cx="71.85018" cy="44.347276" fill="#f22f2d" rx="39.485207" ry="39.28317" transform="matrix(0 1 -1 0 116.197456 -27.502904)"/><g fill="#fff" transform="translate(1.206186 105.120917)"><path d="m17.8562654 52.6402511c19.1564801 0 34.6858756-15.75922 34.6858756-35.1992032 0-19.43998309-15.5293955-35.1992032-34.6858756-35.1992032" transform="matrix(0 -1 1 0 17.758155 52.640251)"/><path d="m82.1008296 43.7199189c9.9946853 0 18.0969784-8.0472613 18.0969784-17.9740612s-8.1022931-17.97406118-18.0969784-17.97406118" transform="matrix(0 -1 1 0 65.403461 116.895177)"/></g><path d="m39.8855227 5.14725857 40.1707124 79.77104543h-80.3414247z" fill="#4a40fd" transform="matrix(0 1 -1 0 84.918304 5.147258)"/><g transform="translate(137.505155)"><path d="m18.1320489 0c6.4184975 0 12.5398108 1.29889291 18.1254616 3.65323408l-.001347.24387512-.0035661-.00057591-18.126217 48.32473001-18.12678303-48.32473001-.003.00057591-.00048237-.23945952c5.58847169-2.35713265 11.713425-3.65764968 18.1359339-3.65764968z" fill="#f22f2d"/><path d="m0 3.897109h36.259566v49.103576h-36.259566z" fill="#f22f2d" transform="matrix(-1 0 0 -1 36.259566 56.897794)"/><path d="m18.1320489 49.1035759c6.4184975 0 12.5398108 1.2988929 18.1254616 3.6532341l-.001347.2438751-.0035661-.0005759-18.126217 48.3247298-18.12678303-48.3247298-.003.0005759-.00048237-.2394595c5.58847169-2.3571327 11.713425-3.6576497 18.1359339-3.6576497z" fill="#ffc1c1"/><path d="m18.3190114 75.9936294c2.9681344 0 5.8021484.5912899 8.3970059 1.6657146l-.0000537.2734869-.002584-.0003021-8.585208 23.0025992-8.58579199-23.0025992-.002.0003021.00109812-.111722c2.69737367-1.1766919 5.66364557-1.8274795 8.77753367-1.8274795z" fill="#4a40fd"/></g><path d="m38.1378061 24.3097136 41.6332394 20.9662837-40.9877844 20.6397236c-3.9341508-6.1504622-6.2162508-13.4699685-6.2162508-21.3252292 0-7.4152467 2.0335961-14.3530788 5.5707958-20.2807781z" fill="#1e179f"/></g><path d="m72.0390625 382.117188c.8671875 0 1.6640625-.138672 2.390625-.416016s1.3730469-.65625 1.9394531-1.136719c.5664063-.480469 1.0410156-1.041015 1.4238282-1.681641.3828124-.640624.6640624-1.320312.84375-2.039062h-2.4023438c-.125.445312-.3027344.863281-.5332031 1.253906-.2304688.390625-.5214844.734375-.8730469 1.03125s-.7597656.529297-1.2246094.697266c-.4648437.167969-.9863281.251953-1.5644531.251953-.625 0-1.2324219-.140625-1.8222656-.421875-.5898438-.28125-1.1132813-.673828-1.5703125-1.177734-.4570313-.503907-.8261719-1.09961-1.1074219-1.78711s-.421875-1.4375-.421875-2.25.140625-1.564453.421875-2.255859.6503906-1.289063 1.1074219-1.792969c.4570312-.503906.9804687-.894531 1.5703125-1.171875.5898437-.277344 1.1972656-.416015 1.8222656-.416015.546875 0 1.0429687.083984 1.4882813.251953.4453124.167968.8398437.398437 1.1835937.691406s.6328125.636719.8671875 1.03125.4140625.814453.5390625 1.259765h2.4023437c-.171875-.71875-.4511718-1.398437-.8378906-2.039062-.3867187-.640625-.8554687-1.201172-1.40625-1.681641-.5507812-.480468-1.1875-.859375-1.9101562-1.136718-.7226563-.277344-1.4980469-.416016-2.3261719-.416016-.9609375 0-1.8769531.195313-2.7480469.585937-.8710937.390626-1.6347656.933594-2.2910156 1.628907-.65625.695312-1.1796875 1.511719-1.5703125 2.449219s-.5859375 1.941406-.5859375 3.011718c0 1.085938.1953125 2.09375.5859375 3.023438.390625.929687.9140625 1.742187 1.5703125 2.4375.65625.695312 1.4199219 1.238281 2.2910156 1.628906.8710938.390625 1.7871094.585938 2.7480469.585938zm12.8106965 0c.71875 0 1.390625-.134766 2.015625-.404297.625-.269532 1.1738281-.648438 1.6464844-1.136719.4726562-.488281.8398437-1.070313 1.1015625-1.746094.2617187-.675781.3925781-1.419922.3925781-2.232422s-.1308594-1.554687-.3925781-2.226562c-.2617188-.671875-.6289063-1.251953-1.1015625-1.740235-.4726563-.488281-1.0214844-.86914-1.6464844-1.142578-.625-.273437-1.296875-.410156-2.015625-.410156s-1.390625.136719-2.015625.410156c-.625.273438-1.1738281.654297-1.6464844 1.142578-.4726562.488282-.8398437 1.06836-1.1015625 1.740235-.2617187.671875-.3925781 1.414062-.3925781 2.226562 0 .820313.1308594 1.566406.3925781 2.238282.2617188.671874.6289063 1.251953 1.1015625 1.740234.4726563.488281 1.0214844.867187 1.6464844 1.136719.625.269531 1.296875.404297 2.015625.404297zm0-2.039063c-.3828125 0-.7578125-.083984-1.125-.251953s-.6875-.408203-.9609375-.720703-.4941406-.679688-.6621094-1.101563c-.1679687-.421875-.2519531-.890625-.2519531-1.40625 0-.507812.0839844-.974609.2519531-1.40039.1679688-.425782.3886719-.794922.6621094-1.107422s.59375-.552735.9609375-.720703c.3671875-.167969.7421875-.251953 1.125-.251953s.7578125.083984 1.125.251953c.3671875.167968.6875.408203.9609375.720703s.4941406.679687.6621094 1.101562c.1679687.421875.2519531.890625.2519531 1.40625s-.0839844.984375-.2519531 1.40625c-.1679688.421875-.3886719.789063-.6621094 1.101563s-.59375.552734-.9609375.720703-.7421875.251953-1.125.251953zm9.3302277 1.921875v-6.234375c0-.359375.0683594-.697266.2050782-1.013672.1367187-.316406.3242187-.595703.5625-.837891.2382812-.242187.5175781-.435546.8378906-.580078.3203125-.144531.6640625-.216796 1.03125-.216796.3359375 0 .65625.072265.9609375.216796.3046875.144532.5742187.337891.8085937.580078.234375.242188.4199219.523438.5566407.84375.1367187.320313.2050781.65625.2050781 1.007813v6.234375h2.1562495v-6.234375c0-.695313-.113281-1.330078-.339843-1.904297-.226563-.574219-.535157-1.064453-.925782-1.470703-.3906245-.40625-.8496089-.726563-1.3769526-.960937-.5273438-.234376-1.0878907-.351563-1.6816407-.351563-.546875 0-1.015625.064453-1.40625.193359-.390625.128907-.7148437.263672-.9726562.404297-.28125.179688-.5273438.382813-.7382813.609375l-.4804687-1.089844h-1.5585938v10.804688zm14.1349153.117188c.328125 0 .613281-.039063.855469-.117188.132812-.03125.246094-.070312.339844-.117188v-1.921874c-.070313.03125-.144532.054687-.222657.070312s-.162109.027344-.251953.035156c-.089844.007813-.173828.011719-.251953.011719-.476562 0-.875-.160156-1.195312-.480469-.320313-.320312-.480469-.71875-.480469-1.195312v-5.167969h2.402344v-2.039063h-2.402344v-2.871093h-1.792969v1.441406c0 .414063-.136719.755859-.410156 1.025391-.273438.269531-.617188.404296-1.03125.404296h-.84375v2.039063h1.921875v5.167969c0 .578125.083984 1.09375.251953 1.546875s.404297.839843.708984 1.160156c.304688.320313.66211.568359 1.072266.744141.410156.175781.853516.263672 1.330078.263672zm7.888821 0c.625 0 1.189454-.083985 1.69336-.251954.503906-.167968.947265-.40039 1.330078-.697265.382812-.296875.710937-.640625.984375-1.03125.273437-.390625.5-.808594.679687-1.253907h-2.285156c-.171875.234376-.451172.492188-.83789.773438-.386719.28125-.908204.421875-1.564454.421875-.382812 0-.746093-.068359-1.089843-.205078s-.638672-.320313-.884766-.550781c-.246094-.230469-.451172-.498047-.615234-.802735-.164063-.304687-.261719-.625-.292969-.960937h7.6875c.015625-.078125.03125-.171875.046875-.28125.015625-.085938.03125-.189453.046875-.310547s.023437-.244141.023437-.369141c0-.8125-.132812-1.554687-.398437-2.226562s-.625-1.251953-1.078125-1.740235c-.453125-.488281-.988281-.86914-1.605469-1.142578-.617187-.273437-1.269531-.410156-1.957031-.410156s-1.339844.136719-1.957031.410156c-.617188.273438-1.152344.654297-1.605469 1.142578-.453125.488282-.8125 1.06836-1.078125 1.740235s-.398438 1.414062-.398438 2.226562c0 .820313.132813 1.566406.398438 2.238282.265625.671874.632812 1.251953 1.101562 1.740234s1.015625.867187 1.640625 1.136719c.625.269531 1.296875.404297 2.015625.404297zm2.882813-6.351563h-5.765625c.132812-.789063.447266-1.427734.943359-1.916016.496094-.488281 1.103516-.732421 1.822266-.732421.851562 0 1.533203.246093 2.044922.738281.511719.492187.830078 1.128906.955078 1.910156zm6.201322 6.234375v-6.234375c0-.359375.068359-.697266.205078-1.013672.136718-.316406.324218-.595703.5625-.837891.238281-.242187.517578-.435546.83789-.580078.320313-.144531.664063-.216796 1.03125-.216796.335938 0 .65625.072265.960938.216796.304687.144532.574219.337891.808594.580078.234375.242188.419921.523438.55664.84375.136719.320313.205078.65625.205078 1.007813v6.234375h2.15625v-6.234375c0-.695313-.113281-1.330078-.339843-1.904297-.226563-.574219-.535157-1.064453-.925782-1.470703s-.849609-.726563-1.376953-.960937c-.527344-.234376-1.08789-.351563-1.68164-.351563-.546875 0-1.015625.064453-1.40625.193359-.390625.128907-.714844.263672-.972657.404297-.28125.179688-.527343.382813-.738281.609375l-.480469-1.089844h-1.558593v10.804688zm14.134915.117188c.328125 0 .613281-.039063.855469-.117188.132812-.03125.246093-.070312.339843-.117188v-1.921874c-.070312.03125-.144531.054687-.222656.070312s-.162109.027344-.251953.035156c-.089844.007813-.173828.011719-.251953.011719-.476563 0-.875-.160156-1.195313-.480469-.320312-.320312-.480468-.71875-.480468-1.195312v-5.167969h2.402343v-2.039063h-2.402343v-2.871093h-1.792969v1.441406c0 .414063-.136719.755859-.410156 1.025391-.273438.269531-.617188.404296-1.03125.404296h-.84375v2.039063h1.921875v5.167969c0 .578125.083984 1.09375.251953 1.546875.167968.453125.404297.839843.708984 1.160156.304688.320313.662109.568359 1.072266.744141.410156.175781.853515.263672 1.330078.263672zm11.933893 0c1.265625 0 2.242187-.31836 2.929687-.955079.6875-.636718 1.03125-1.435547 1.03125-2.396484 0-.640625-.144531-1.150391-.433593-1.529297-.289063-.378906-.646485-.679687-1.072266-.902344-.425781-.222656-.884766-.394531-1.376953-.515625-.492188-.121093-.951172-.236328-1.376953-.345703-.425782-.109375-.783203-.248047-1.072266-.416015-.289062-.167969-.433594-.41211-.433594-.732422 0-.304688.144532-.582031.433594-.832031.289063-.25.707031-.375 1.253906-.375.539063 0 .957032.128906 1.253907.386718.296875.257813.476562.570313.539062.9375h2.167969c-.070313-1.023437-.431641-1.839844-1.083985-2.449218-.652343-.609376-1.611328-.914063-2.876953-.914063-.578125 0-1.095703.083984-1.552734.251953s-.845703.400391-1.166016.697266c-.320312.296875-.568359.642578-.74414 1.037109-.175782.394531-.263672.814453-.263672 1.259766 0 .640625.144531 1.148437.433594 1.523437.289062.375.644531.673828 1.066406.896485.421875.222656.880859.394531 1.376953.515625.496094.121093.957031.238281 1.382812.351562.425782.113281.783204.253906 1.072266.421875.289063.167969.433594.412109.433594.732422 0 .367187-.152344.677734-.457031.931641-.304688.253906-.792969.380859-1.464844.380859-.609375 0-1.066406-.140625-1.371094-.421875-.304687-.28125-.488281-.660156-.550781-1.136719h-2.15625c.0625 1.148438.425781 2.035157 1.089844 2.660157.664062.625 1.660156.9375 2.988281.9375zm10.291165 0c.328125 0 .613281-.039063.855469-.117188.132812-.03125.246094-.070312.339844-.117188v-1.921874c-.070313.03125-.144532.054687-.222657.070312s-.162109.027344-.251953.035156c-.089844.007813-.173828.011719-.251953.011719-.476562 0-.875-.160156-1.195312-.480469-.320313-.320312-.480469-.71875-.480469-1.195312v-5.167969h2.402344v-2.039063h-2.402344v-2.871093h-1.792969v1.441406c0 .414063-.136719.755859-.410156 1.025391-.273438.269531-.617188.404296-1.03125.404296h-.84375v2.039063h1.921875v5.167969c0 .578125.083984 1.09375.251953 1.546875s.404297.839843.708984 1.160156c.304688.320313.66211.568359 1.072266.744141.410156.175781.853516.263672 1.330078.263672zm5.603665-.117188v-6.117188c0-.351562.06836-.6875.205078-1.007812.136719-.320312.324219-.601562.5625-.84375.238282-.242188.517579-.435547.837891-.580078.320313-.144531.664063-.216797 1.03125-.216797.085938 0 .171875.009766.257813.029297.085937.019531.167968.037109.246093.052734.085938.015625.160157.03125.222657.046875v-2.167969c-.0625-.015624-.125-.03125-.1875-.046874-.070313-.015626-.146485-.03125-.228516-.046876-.082031-.015624-.185547-.023437-.310547-.023437-.460937 0-.863281.064453-1.207031.193359-.34375.128907-.628906.263672-.855469.404297-.265625.179688-.496094.382813-.691406.609375l-.480469-1.089844h-1.558594v10.804688zm8.123197.117188c.546875 0 1.015625-.060547 1.40625-.181641s.714844-.259766.972656-.416016c.289063-.171875.539063-.371093.75-.597656l.480469 1.078125h1.558594v-7.078125c0-.546875-.101563-1.052734-.304688-1.517578s-.488281-.869141-.855469-1.212891c-.367187-.34375-.810547-.615234-1.330078-.814453s-1.091797-.298828-1.716797-.298828c-1.328125 0-2.363281.320313-3.105468.960937-.742188.640626-1.144532 1.441407-1.207032 2.402344h2.15625c.0625-.367187.257813-.679687.585938-.9375.328125-.257812.851562-.386718 1.570312-.386718.671875 0 1.179688.164062 1.523438.492187s.515625.765625.515625 1.3125v.363281c-1.328125 0-2.423828.087891-3.28711.263672-.863281.175781-1.546875.417969-2.050781.726563-.503906.308593-.859375.683593-1.066406 1.125-.207031.441406-.310547.935547-.310547 1.482421 0 .960938.318359 1.740235.955078 2.337891s1.556641.896485 2.759766.896485zm.128906-1.921876c-.546875 0-.964844-.123046-1.253906-.36914-.289063-.246094-.433594-.521484-.433594-.826172 0-.273438.056641-.521484.169922-.744141.113281-.222656.337891-.410156.673828-.5625.335938-.152343.798828-.273437 1.388672-.363281s1.365234-.134766 2.326172-.134766v.585938c0 .671875-.25 1.242188-.75 1.710938s-1.207031.703124-2.121094.703124zm11.615384 1.921876c.328125 0 .613281-.039063.855469-.117188.132812-.03125.246094-.070312.339844-.117188v-1.921874c-.070313.03125-.144532.054687-.222657.070312s-.162109.027344-.251953.035156c-.089844.007813-.173828.011719-.251953.011719-.476562 0-.875-.160156-1.195312-.480469-.320313-.320312-.480469-.71875-.480469-1.195312v-5.167969h2.402344v-2.039063h-2.402344v-2.871093h-1.792969v1.441406c0 .414063-.136719.755859-.410156 1.025391-.273438.269531-.617188.404296-1.03125.404296h-.84375v2.039063h1.921875v5.167969c0 .578125.083984 1.09375.251953 1.546875s.404297.839843.708984 1.160156c.304688.320313.66211.568359 1.072266.744141.410156.175781.853516.263672 1.330078.263672zm7.888822 0c.625 0 1.189453-.083985 1.693359-.251954.503906-.167968.947266-.40039 1.330078-.697265.382813-.296875.710938-.640625.984375-1.03125.273438-.390625.5-.808594.679688-1.253907h-2.285157c-.171875.234376-.451172.492188-.83789.773438-.386719.28125-.908203.421875-1.564453.421875-.382813 0-.746094-.068359-1.089844-.205078s-.638672-.320313-.884766-.550781c-.246094-.230469-.451172-.498047-.615234-.802735-.164063-.304687-.261719-.625-.292969-.960937h7.6875c.015625-.078125.03125-.171875.046875-.28125.015625-.085938.03125-.189453.046875-.310547s.023438-.244141.023438-.369141c0-.8125-.132813-1.554687-.398438-2.226562s-.625-1.251953-1.078125-1.740235c-.453125-.488281-.988281-.86914-1.605469-1.142578-.617187-.273437-1.269531-.410156-1.957031-.410156s-1.339844.136719-1.957031.410156c-.617188.273438-1.152344.654297-1.605469 1.142578-.453125.488282-.8125 1.06836-1.078125 1.740235s-.398437 1.414062-.398437 2.226562c0 .820313.132812 1.566406.398437 2.238282.265625.671874.632813 1.251953 1.101563 1.740234s1.015625.867187 1.640625 1.136719c.625.269531 1.296875.404297 2.015625.404297zm2.882812-6.351563h-5.765625c.132813-.789063.447266-1.427734.943359-1.916016.496094-.488281 1.103516-.732421 1.822266-.732421.851563 0 1.533203.246093 2.044922.738281.511719.492187.830078 1.128906.955078 1.910156zm8.603665 10.3125c.75 0 1.429688-.111328 2.039063-.333984.609375-.222657 1.125-.539063 1.546875-.949219s.75-.894531.984375-1.453125.351562-1.166016.351562-1.822266v-10.324219h-1.558593l-.480469 1.089844c-.210938-.226562-.460938-.429687-.75-.609375-.25-.140625-.570313-.27539-.960938-.404297-.390625-.128906-.859375-.193359-1.40625-.193359-.65625 0-1.285156.136719-1.886718.410156-.601563.273438-1.126954.646485-1.576172 1.119141-.449219.472656-.804688 1.029297-1.066407 1.669922-.261718.640625-.392578 1.335937-.392578 2.085937s.13086 1.445313.392578 2.085938c.261719.640625.617188 1.197265 1.066407 1.669922.449218.472656.974609.84375 1.576172 1.113281.601562.269531 1.230468.404297 1.886718.404297.507813 0 .945313-.060547 1.3125-.181641.367188-.121094.679688-.259766.9375-.416016.289063-.171874.539063-.371093.75-.597656v1.078125c0 .78125-.248047 1.416016-.74414 1.904297-.496094.488281-1.169922.732422-2.021485.732422-.71875 0-1.273437-.148438-1.664062-.445312-.390625-.296876-.675781-.628907-.855469-.996094h-2.15625c.109375.453125.292969.882812.550781 1.289062.257813.40625.582032.761719.972657 1.066406.390625.304688.849609.548829 1.376953.732422.527343.183594 1.11914.275391 1.77539.275391zm.023438-6.480469c-.398438 0-.777344-.083984-1.136719-.251953s-.679687-.400391-.960937-.697265c-.28125-.296876-.50586-.640626-.673829-1.03125-.167968-.390626-.251953-.808594-.251953-1.253907 0-.453125.083985-.875.251953-1.265625.167969-.390625.388672-.734375.66211-1.03125.273437-.296875.59375-.529297.960937-.697265.367188-.167969.742188-.251953 1.125-.251953.382813 0 .757813.083984 1.125.251953.367188.167968.6875.40039.960938.697265.273437.296875.49414.642578.662109 1.03711.167969.394531.251953.814453.251953 1.259765 0 .445313-.083984.863281-.251953 1.253907-.167969.390624-.388672.734374-.662109 1.03125-.273438.296874-.589844.529296-.949219.697265s-.730469.251953-1.113281.251953zm8.826321 6.363282c.414063 0 .785157-.056641 1.113282-.169922.328125-.113282.626953-.296875.896484-.550782.269531-.253906.519531-.585937.75-.996093.230469-.410157.466797-.919922.708984-1.529297l4.570313-11.519532h-2.285156l-3 7.804688-3-7.804688h-2.285157l4.207032 10.441407-.363282 1.078125c-.125.375-.34375.689453-.65625.943359s-.773437.380859-1.382812.380859v1.804688c.070312.03125.144531.054688.222656.070312.078125.015626.158203.027344.240234.035157.082032.007812.169922.011719.263672.011719z" fill="#fff" fill-rule="nonzero"/></g></svg>