<svg height="449" viewBox="0 0 478 449" width="478" xmlns="http://www.w3.org/2000/svg"><g fill="none" fill-rule="evenodd"><path d="m0 0h478v449h-478z" fill="#f22f2d"/><path d="m83.0390625 76.1171875c.8671875 0 1.6640625-.1386719 2.390625-.4160156.7265625-.2773438 1.3730469-.65625 1.9394531-1.1367188.5664063-.4804687 1.0410156-1.0410156 1.4238282-1.6816406.3828124-.640625.6640624-1.3203125.84375-2.0390625h-2.4023438c-.125.4453125-.3027344.8632812-.5332031 1.2539062-.2304688.390625-.5214844.734375-.8730469 1.03125s-.7597656.5292969-1.2246094.6972657c-.4648437.1679687-.9863281.2519531-1.5644531.2519531-.625 0-1.2324219-.140625-1.8222656-.421875-.5898438-.28125-1.1132813-.6738281-1.5703125-1.1777344-.4570313-.5039062-.8261719-1.0996094-1.1074219-1.7871094s-.421875-1.4375-.421875-2.25.140625-1.5644531.421875-2.2558593c.28125-.6914063.6503906-1.2890625 1.1074219-1.7929688.4570312-.5039062.9804687-.8945312 1.5703125-1.171875.5898437-.2773437 1.1972656-.4160156 1.8222656-.4160156.546875 0 1.0429687.0839844 1.4882813.2519531.4453124.1679688.8398437.3984375 1.1835937.6914063.34375.2929687.6328125.6367187.8671875 1.03125.234375.3945312.4140625.8144531.5390625 1.2597656h2.4023437c-.171875-.71875-.4511718-1.3984375-.8378906-2.0390625-.3867187-.640625-.8554687-1.2011719-1.40625-1.6816406-.5507812-.4804688-1.1875-.859375-1.9101562-1.1367188-.7226563-.2773437-1.4980469-.4160156-2.3261719-.4160156-.9609375 0-1.8769531.1953125-2.7480469.5859375-.8710937.390625-1.6347656.9335937-2.2910156 1.6289063-.65625.6953124-1.1796875 1.5117187-1.5703125 2.4492187s-.5859375 1.9414063-.5859375 3.0117187c0 1.0859376.1953125 2.09375.5859375 3.0234376.390625.9296874.9140625 1.7421874 1.5703125 2.4375.65625.6953124 1.4199219 1.2382812 2.2910156 1.6289062.8710938.390625 1.7871094.5859375 2.7480469.5859375zm10.6427278-.1171875v-6.1171875c0-.3515625.0683593-.6875.2050781-1.0078125.1367187-.3203125.3242187-.6015625.5625-.84375.2382812-.2421875.5175781-.4355469.8378906-.5800781.3203125-.1445313.6640625-.2167969 1.03125-.2167969.0859375 0 .171875.0097656.2578125.0292969.0859375.0195312.1679688.0371093.2460938.0527343.0859375.015625.1601562.03125.2226562.046875v-2.1679687c-.0625-.015625-.125-.03125-.1875-.046875-.0703125-.015625-.1464844-.03125-.2285156-.046875-.0820313-.015625-.1855469-.0234375-.3105469-.0234375-.4609375 0-.8632812.0644531-1.2070312.1933594-.34375.1289062-.6289063.2636718-.8554688.4042968-.265625.1796876-.4960937.3828126-.6914062.609375l-.4804688-1.0898437h-1.5585937v10.8046875zm9.5646027.1171875c.625 0 1.189453-.0839844 1.693359-.2519531.503907-.1679688.947266-.4003906 1.330078-.6972656.382813-.296875.710938-.640625.984375-1.03125.273438-.390625.5-.8085938.679688-1.2539063h-2.285156c-.171875.234375-.451172.4921875-.837891.7734375s-.908203.421875-1.564453.421875c-.382813 0-.746094-.0683594-1.089844-.2050781-.34375-.1367188-.638672-.3203125-.884765-.5507813-.246094-.2304687-.451172-.4980468-.615235-.8027344-.164062-.3046874-.261719-.625-.292969-.9609374h7.6875c.015625-.078125.03125-.171875.046875-.28125.015625-.0859376.03125-.1894532.046875-.3105469.015625-.1210938.023438-.2441407.023438-.3691407 0-.8125-.132813-1.5546874-.398438-2.2265624s-.625-1.2519532-1.078125-1.7402344c-.453125-.4882813-.988281-.8691406-1.605468-1.1425782-.617188-.2734374-1.269532-.4101562-1.957032-.4101562s-1.339843.1367188-1.957031.4101562c-.617187.2734376-1.152344.6542969-1.6054685 1.1425782-.453125.4882812-.8125 1.0683594-1.078125 1.7402344s-.3984375 1.4140624-.3984375 2.2265624c0 .8203126.1328125 1.5664063.3984375 2.2382813s.6328125 1.2519531 1.1015625 1.7402344c.46875.4882812 1.015625.8671875 1.640625 1.1367187.625.2695313 1.296875.4042969 2.015625.4042969zm2.882812-6.3515625h-5.765625c.132813-.7890625.447266-1.4277344.94336-1.9160156.496094-.4882813 1.103515-.7324219 1.822265-.7324219.851563 0 1.533204.2460937 2.044922.7382813.511719.4921874.830078 1.1289062.955078 1.9101562zm7.279447 6.3515625c.546875 0 1.015625-.0605469 1.40625-.1816406.390625-.1210938.714844-.2597657.972656-.4160157.289063-.171875.539063-.3710937.75-.5976562l.480469 1.078125h1.558594v-7.078125c0-.546875-.101563-1.0527344-.304688-1.5175781-.203125-.4648438-.488281-.8691407-.855468-1.2128907-.367188-.34375-.810547-.6152343-1.330079-.8144531-.519531-.1992187-1.091796-.2988281-1.716796-.2988281-1.328125 0-2.363282.3203125-3.105469.9609375-.742188.640625-1.144531 1.4414063-1.207031 2.4023437h2.15625c.0625-.3671874.257812-.6796874.585937-.9375.328125-.2578124.851563-.3867187 1.570313-.3867187.671875 0 1.179687.1640625 1.523437.4921875s.515625.765625.515625 1.3125v.3632812c-1.328125 0-2.423828.0878907-3.287109.2636719-.863282.1757813-1.546875.4179688-2.050782.7265625-.503906.3085938-.859375.6835938-1.066406 1.125-.207031.4414063-.310547.9355469-.310547 1.4824219 0 .9609375.31836 1.7402344.955078 2.3378906.636719.5976563 1.556641.8964844 2.759766.8964844zm.128906-1.921875c-.546875 0-.964843-.1230469-1.253906-.3691406-.289062-.2460938-.433594-.5214844-.433594-.8261719 0-.2734375.056641-.5214844.169922-.7441406.113281-.2226563.337891-.4101563.673828-.5625.335938-.1523438.798828-.2734375 1.388672-.3632813.589844-.0898437 1.365235-.1347656 2.326172-.1347656v.5859375c0 .671875-.25 1.2421875-.75 1.7109375s-1.207031.703125-2.121094.703125zm11.615384 1.921875c.328125 0 .613281-.0390625.855469-.1171875.132812-.03125.246094-.0703125.339844-.1171875v-1.921875c-.070313.03125-.144532.0546875-.222657.0703125s-.162109.0273438-.251953.0351562c-.089843.0078126-.173828.0117188-.251953.0117188-.476562 0-.875-.1601562-1.195312-.4804688-.320313-.3203124-.480469-.71875-.480469-1.1953124v-5.1679688h2.402344v-2.0390625h-2.402344v-2.8710937h-1.792969v1.4414062c0 .4140625-.136719.7558594-.410156 1.0253906-.273438.2695313-.617188.4042969-1.03125.4042969h-.84375v2.0390625h1.921875v5.1679688c0 .578125.083984 1.09375.251953 1.546875s.404297.8398437.708984 1.1601562c.304688.3203125.66211.5683594 1.072266.7441406.410156.1757813.853516.2636719 1.330078.2636719zm4.525541-12.5976563c.367187 0 .679687-.1289062.9375-.3867187.257812-.2578125.386718-.5703125.386718-.9375s-.128906-.6777344-.386718-.9316406c-.257813-.2539063-.570313-.3808594-.9375-.3808594-.367188 0-.679688.1269531-.9375.3808594-.257813.2539062-.386719.5644531-.386719.9316406 0 .375.128906.6894531.386719.9433594.257812.2539062.570312.3808593.9375.3808593zm1.078125 12.4804688v-10.8046875h-2.15625v10.8046875zm7.654446 0 4.324219-10.8046875h-2.285156l-3 7.8046875-3-7.8046875h-2.285157l4.324219 10.8046875zm10.408353.1171875c.625 0 1.189453-.0839844 1.693359-.2519531.503906-.1679688.947266-.4003906 1.330078-.6972656.382813-.296875.710938-.640625.984375-1.03125.273438-.390625.5-.8085938.679688-1.2539063h-2.285157c-.171875.234375-.451171.4921875-.83789.7734375s-.908203.421875-1.564453.421875c-.382813 0-.746094-.0683594-1.089844-.2050781-.34375-.1367188-.638672-.3203125-.884766-.5507813-.246093-.2304687-.451172-.4980468-.615234-.8027344-.164063-.3046874-.261719-.625-.292969-.9609374h7.6875c.015625-.078125.03125-.171875.046875-.28125.015625-.0859376.03125-.1894532.046875-.3105469.015625-.1210938.023438-.2441407.023438-.3691407 0-.8125-.132813-1.5546874-.398438-2.2265624s-.625-1.2519532-1.078125-1.7402344c-.453125-.4882813-.988281-.8691406-1.605469-1.1425782-.617187-.2734374-1.269531-.4101562-1.957031-.4101562s-1.339844.1367188-1.957031.4101562c-.617188.2734376-1.152344.6542969-1.605469 1.1425782-.453125.4882812-.8125 1.0683594-1.078125 1.7402344s-.398437 1.4140624-.398437 2.2265624c0 .8203126.132812 1.5664063.398437 2.2382813s.632813 1.2519531 1.101563 1.7402344c.46875.4882812 1.015625.8671875 1.640625 1.1367187.625.2695313 1.296875.4042969 2.015625.4042969zm2.882812-6.3515625h-5.765625c.132813-.7890625.447266-1.4277344.94336-1.9160156.496093-.4882813 1.103515-.7324219 1.822265-.7324219.851563 0 1.533203.2460937 2.044922.7382813.511719.4921874.830078 1.1289062.955078 1.9101562zm11.570612 6.234375v-8.765625h2.402344v-2.0390625h-2.402344v-.7148437c0-.4765626.160156-.875.480469-1.1953126.320312-.3203124.71875-.4804687 1.195312-.4804687.085938 0 .171875.0078125.257813.0234375.085937.015625.167968.03125.246093.046875.085938.015625.160157.03125.222657.046875v-1.921875c-.101563-.03125-.214844-.0703125-.339844-.1171875-.109375-.03125-.236328-.0585937-.380859-.0820313-.144532-.0234374-.306641-.0351562-.486329-.0351562-.476562 0-.919921.0878906-1.330078.2636719-.410156.1757812-.765625.421875-1.066406.7382812-.300781.3164063-.535156.703125-.703125 1.1601563-.167969.4570312-.251953.9746094-.251953 1.5527344v.7148437h-1.324219v2.0390625h1.324219v8.765625zm6.201322 0v-6.1171875c0-.3515625.068359-.6875.205078-1.0078125.136718-.3203125.324218-.6015625.5625-.84375.238281-.2421875.517578-.4355469.83789-.5800781.320313-.1445313.664063-.2167969 1.03125-.2167969.085938 0 .171875.0097656.257813.0292969.085937.0195312.167969.0371093.246094.0527343.085937.015625.160156.03125.222656.046875v-2.1679687c-.0625-.015625-.125-.03125-.1875-.046875-.070313-.015625-.146485-.03125-.228516-.046875s-.185547-.0234375-.310547-.0234375c-.460937 0-.863281.0644531-1.207031.1933594-.34375.1289062-.628906.2636718-.855469.4042968-.265625.1796876-.496093.3828126-.691406.609375l-.480469-1.0898437h-1.558593v10.8046875zm9.447415.1171875c.71875 0 1.390625-.1347656 2.015625-.4042969.625-.2695312 1.173828-.6484375 1.646484-1.1367187.472656-.4882813.839844-1.0703125 1.101563-1.7460938.261718-.6757812.392578-1.4199219.392578-2.2324219s-.13086-1.5546874-.392578-2.2265624c-.261719-.671875-.628907-1.2519532-1.101563-1.7402344-.472656-.4882813-1.021484-.8691406-1.646484-1.1425782-.625-.2734374-1.296875-.4101562-2.015625-.4101562s-1.390625.1367188-2.015625.4101562c-.625.2734376-1.173828.6542969-1.646485 1.1425782-.472656.4882812-.839843 1.0683594-1.101562 1.7402344s-.392578 1.4140624-.392578 2.2265624c0 .8203126.130859 1.5664063.392578 2.2382813s.628906 1.2519531 1.101562 1.7402344c.472657.4882812 1.021485.8671875 1.646485 1.1367187.625.2695313 1.296875.4042969 2.015625.4042969zm0-2.0390625c-.382813 0-.757813-.0839844-1.125-.2519531-.367188-.1679688-.6875-.4082031-.960938-.7207031-.273437-.3125-.49414-.6796876-.662109-1.1015626s-.251953-.890625-.251953-1.40625c0-.5078124.083984-.9746093.251953-1.4003906.167969-.4257812.388672-.7949218.662109-1.1074218.273438-.3125.59375-.5527344.960938-.7207032.367187-.1679687.742187-.2519531 1.125-.2519531.382812 0 .757812.0839844 1.125.2519531.367187.1679688.6875.4082032.960937.7207032.273438.3125.494141.6796874.66211 1.1015624.167968.421875.251953.890625.251953 1.40625s-.083985.984375-.251953 1.40625c-.167969.421875-.388672.7890626-.66211 1.1015626-.273437.3125-.59375.5527343-.960937.7207031-.367188.1679687-.742188.2519531-1.125.2519531zm9.330228 1.921875v-6.234375c0-.359375.068359-.6972656.205078-1.0136719.136718-.3164062.324218-.5957031.5625-.8378906.238281-.2421875.517578-.4355469.83789-.5800781.320313-.1445313.664063-.2167969 1.03125-.2167969.335938 0 .65625.0722656.960938.2167969.304687.1445312.574219.3378906.808594.5800781s.419921.5234375.55664.84375.205078.65625.205078 1.0078125v6.234375h2.15625v-6.234375c0-.6953125-.113281-1.3300781-.339843-1.9042969-.226563-.5742187-.535157-1.0644531-.925782-1.4707031s-.849609-.7265625-1.376953-.9609375-1.08789-.3515625-1.68164-.3515625c-.546875 0-1.015625.0644531-1.40625.1933594-.390625.1289062-.714844.2636718-.972657.4042968-.28125.1796876-.527343.3828126-.738281.609375l-.480469-1.0898437h-1.558593v10.8046875zm14.134915.1171875c.328125 0 .613281-.0390625.855469-.1171875.132812-.03125.246093-.0703125.339843-.1171875v-1.921875c-.070312.03125-.144531.0546875-.222656.0703125s-.162109.0273438-.251953.0351562c-.089844.0078126-.173828.0117188-.251953.0117188-.476563 0-.875-.1601562-1.195313-.4804688-.320312-.3203124-.480468-.71875-.480468-1.1953124v-5.1679688h2.402343v-2.0390625h-2.402343v-2.8710937h-1.792969v1.4414062c0 .4140625-.136719.7558594-.410156 1.0253906-.273438.2695313-.617188.4042969-1.03125.4042969h-.84375v2.0390625h1.921875v5.1679688c0 .578125.083984 1.09375.251953 1.546875.167968.453125.404297.8398437.708984 1.1601562.304688.3203125.662109.5683594 1.072266.7441406.410156.1757813.853515.2636719 1.330078.2636719zm13.129205 0c.625 0 1.189453-.0839844 1.69336-.2519531.503906-.1679688.947265-.4003906 1.330078-.6972656.382812-.296875.710937-.640625.984375-1.03125.273437-.390625.5-.8085938.679687-1.2539063h-2.285156c-.171875.234375-.451172.4921875-.837891.7734375-.386718.28125-.908203.421875-1.564453.421875-.382812 0-.746093-.0683594-1.089843-.2050781-.34375-.1367188-.638672-.3203125-.884766-.5507813-.246094-.2304687-.451172-.4980468-.615234-.8027344-.164063-.3046874-.261719-.625-.292969-.9609374h7.6875c.015625-.078125.03125-.171875.046875-.28125.015625-.0859376.03125-.1894532.046875-.3105469.015625-.1210938.023437-.2441407.023437-.3691407 0-.8125-.132812-1.5546874-.398437-2.2265624s-.625-1.2519532-1.078125-1.7402344c-.453125-.4882813-.988281-.8691406-1.605469-1.1425782-.617187-.2734374-1.269531-.4101562-1.957031-.4101562s-1.339844.1367188-1.957031.4101562c-.617188.2734376-1.152344.6542969-1.605469 1.1425782-.453125.4882812-.8125 1.0683594-1.078125 1.7402344s-.398438 1.4140624-.398438 2.2265624c0 .8203126.132813 1.5664063.398438 2.2382813s.632812 1.2519531 1.101562 1.7402344c.46875.4882812 1.015625.8671875 1.640625 1.1367187.625.2695313 1.296875.4042969 2.015625.4042969zm2.882813-6.3515625h-5.765625c.132812-.7890625.447265-1.4277344.943359-1.9160156.496094-.4882813 1.103516-.7324219 1.822266-.7324219.851562 0 1.533203.2460937 2.044922.7382813.511718.4921874.830078 1.1289062.955078 1.9101562zm6.201321 6.234375v-6.234375c0-.359375.06836-.6972656.205078-1.0136719.136719-.3164062.324219-.5957031.5625-.8378906.238282-.2421875.517579-.4355469.837891-.5800781.320313-.1445313.664063-.2167969 1.03125-.2167969.335938 0 .65625.0722656.960938.2167969.304687.1445312.574218.3378906.808593.5800781s.419922.5234375.556641.84375.205078.65625.205078 1.0078125v6.234375h2.15625v-6.234375c0-.6953125-.113281-1.3300781-.339844-1.9042969-.226562-.5742187-.535156-1.0644531-.925781-1.4707031s-.849609-.7265625-1.376953-.9609375-1.087891-.3515625-1.681641-.3515625c-.546875 0-1.015625.0644531-1.40625.1933594-.390625.1289062-.714843.2636718-.972656.4042968-.28125.1796876-.527344.3828126-.738281.609375l-.480469-1.0898437h-1.558594v10.8046875zm14.369291.1171875c.546875 0 1.015625-.0605469 1.40625-.1816406.390625-.1210938.714843-.2597657.972656-.4160157.28125-.171875.527344-.3710937.738281-.5976562l.480469 1.078125h1.558594v-15.1171875h-2.15625v5.4023437c-.203125-.2265624-.449219-.4296874-.738282-.609375-.257812-.140625-.570312-.2753906-.9375-.4042968-.367187-.1289063-.808593-.1933594-1.324218-.1933594-.71875 0-1.390625.1367188-2.015625.4101562-.625.2734376-1.173829.6542969-1.646485 1.1425782-.472656.4882812-.839844 1.0683594-1.101562 1.7402344-.261719.671875-.392578 1.4140624-.392578 2.2265624 0 .8203126.130859 1.5664063.392578 2.2382813.261718.671875.628906 1.2519531 1.101562 1.7402344.472656.4882812 1.021485.8671875 1.646485 1.1367187.625.2695313 1.296875.4042969 2.015625.4042969zm.117187-2.0390625c-.414062 0-.808594-.0839844-1.183594-.2519531-.375-.1679688-.707031-.4082031-.996093-.7207031-.289063-.3125-.517579-.6796876-.685547-1.1015626-.167969-.421875-.251953-.890625-.251953-1.40625 0-.5078124.083984-.9746093.251953-1.4003906.167968-.4257812.396484-.7949218.685547-1.1074218.289062-.3125.621093-.5527344.996093-.7207032.375-.1679687.769532-.2519531 1.183594-.2519531.414063 0 .810547.0839844 1.189453.2519531.378906.1679688.710938.4082032.996094.7207032s.511719.6796874.679687 1.1015624c.167969.421875.251954.890625.251954 1.40625s-.083985.984375-.251954 1.40625c-.167968.421875-.394531.7890626-.679687 1.1015626s-.617188.5527343-.996094.7207031c-.378906.1679687-.77539.2519531-1.189453.2519531z" fill="#fff" fill-rule="nonzero"/><g transform="translate(119 150)"><path d="m-13.1653 57.2435522c-.0167758 47.5492008 38.173801 86.0819718 85.3010462 86.0653568 47.1272458-.016626 85.3450298-38.576343 85.3618118-86.1255443" fill="#ffc1c1" transform="matrix(-.37460659 .92718385 -.92718385 -.37460659 192.146636 70.887731)"/><path d="m81.1853534 52.7373523c.0173023 47.5494047 38.2350866 86.1091217 85.3623326 86.1257477 47.127245.016615 85.317822-38.516155 85.301046-86.0653566" fill="#4a40fd" transform="matrix(-.37460659 .92718385 .92718385 .37460659 140.071002 -94.479084)"/><g stroke-width="3.6"><path d="m104.8 81.8841463-13.2 13.2134147 13.2 13.213415" stroke="#4a40fd"/><path d="m152 81.8841463-13.2 13.2134147 13.2 13.213415" stroke="#ffc1c1" transform="matrix(-1 0 0 -1 290.8 190.195122)"/></g></g></g></svg>