<svg height="449" viewBox="0 0 352 449" width="352" xmlns="http://www.w3.org/2000/svg"><g fill="none" fill-rule="evenodd"><path d="m0 0h352v449h-352z" fill="#44c2ff"/><g transform="translate(126 212)"><path d="m0 0h160v89.678571h-160z" fill="#f2093d"/><path d="m0 66h102.62069v120.357143h-102.62069z" fill="#4a40fd"/><g fill="#fff"><path d="m115 100h45.241379v4h-45.241379z"/><path d="m115 112h45.241379v4h-45.241379z"/><path d="m115 124h45.241379v4h-45.241379z"/><path d="m115 136h30.241379v4h-30.241379z"/></g><path d="m102.62069 66-.00069 23.678-102.62.0005714v-23.6785714z" fill="#1e179f"/></g><path d="m59.1953125 64.1171875c.8203125 0 1.5742187-.1386719 2.2617187-.4160156.6875-.2773438 1.2832032-.6679688 1.7871094-1.171875.5039063-.5039063.8964844-1.1015625 1.1777344-1.7929688.28125-.6914062.421875-1.4433593.421875-2.2558593v-9.5976563h-2.2851562v9.5976563c0 .546875-.0839844 1.0390624-.2519532 1.4765624-.1679687.4375-.4042968.8125-.7089844 1.125-.3046874.3125-.6621093.5566407-1.0722656.7324219-.4101562.1757813-.8535156.2636719-1.3300781.2636719s-.9179687-.0878906-1.3242187-.2636719c-.40625-.1757812-.7617188-.4199219-1.0664063-.7324219s-.5410156-.6875-.7089844-1.125c-.1679687-.4375-.2519531-.9296874-.2519531-1.4765624v-9.5976563h-2.2851562v9.5976563c0 .8125.140625 1.5644531.421875 2.2558593.28125.6914063.6738281 1.2890625 1.1777343 1.7929688.5039063.5039062 1.0996094.8945312 1.7871094 1.171875.6875.2773437 1.4375.4160156 2.25.4160156zm9.693509-.1171875 3.5976563-5.765625 3.5976562 5.765625h2.5195313l-4.8046875-7.6757812 4.5585937-7.4414063h-2.5195312l-3.3515625 5.5195313-3.3632813-5.5195313h-2.5195312l4.5585937 7.4414063-4.8046875 7.6757812zm11.7208527 4.3242188 6.2460938-19.4414063h-2.0507813l-6.234375 19.4414063zm13.1622591-4.2070313c.8203125 0 1.5742187-.1386719 2.2617187-.4160156.6875-.2773438 1.2832031-.6679688 1.7871094-1.171875.5039062-.5039063.8964844-1.1015625 1.1777344-1.7929688.28125-.6914062.421875-1.4433593.421875-2.2558593v-9.5976563h-2.2851563v9.5976563c0 .546875-.0839844 1.0390624-.2519531 1.4765624-.1679688.4375-.4042969.8125-.7089844 1.125s-.6621094.5566407-1.0722656.7324219c-.4101563.1757813-.8535156.2636719-1.3300781.2636719s-.9179688-.0878906-1.3242188-.2636719c-.40625-.1757812-.7617187-.4199219-1.0664062-.7324219s-.5410157-.6875-.7089844-1.125c-.1679688-.4375-.2519531-.9296874-.2519531-1.4765624v-9.5976563h-2.2851563v9.5976563c0 .8125.140625 1.5644531.421875 2.2558593.28125.6914063.6738281 1.2890625 1.1777344 1.7929688.5039062.5039062 1.0996094.8945312 1.7871094 1.171875.6875.2773437 1.4375.4160156 2.25.4160156zm11.0060087-.1171875v-15.1171875h-2.273437v15.1171875zm12.53155.1171875c.546875 0 1.015625-.0605469 1.40625-.1816406.390625-.1210938.714843-.2597657.972656-.4160157.28125-.171875.527344-.3710937.738281-.5976562l.480469 1.078125h1.558594v-15.1171875h-2.15625v5.4023437c-.203125-.2265624-.449219-.4296874-.738282-.609375-.257812-.140625-.570312-.2753906-.9375-.4042968-.367187-.1289063-.808593-.1933594-1.324218-.1933594-.71875 0-1.390625.1367188-2.015625.4101562-.625.2734376-1.173829.6542969-1.646485 1.1425782-.472656.4882812-.839844 1.0683594-1.101562 1.7402344-.261719.671875-.392578 1.4140624-.392578 2.2265624 0 .8203126.130859 1.5664063.392578 2.2382813.261718.671875.628906 1.2519531 1.101562 1.7402344.472656.4882812 1.021485.8671875 1.646485 1.1367187.625.2695313 1.296875.4042969 2.015625.4042969zm.117187-2.0390625c-.414062 0-.808594-.0839844-1.183594-.2519531-.375-.1679688-.707031-.4082031-.996093-.7207031-.289063-.3125-.517579-.6796876-.685547-1.1015626-.167969-.421875-.251953-.890625-.251953-1.40625 0-.5078124.083984-.9746093.251953-1.4003906.167968-.4257812.396484-.7949218.685547-1.1074218.289062-.3125.621093-.5527344.996093-.7207032.375-.1679687.769532-.2519531 1.183594-.2519531.414063 0 .810547.0839844 1.189453.2519531.378906.1679688.710938.4082032.996094.7207032s.511719.6796874.679687 1.1015624c.167969.421875.251954.890625.251954 1.40625s-.083985.984375-.251954 1.40625c-.167968.421875-.394531.7890626-.679687 1.1015626s-.617188.5527343-.996094.7207031c-.378906.1679687-.77539.2519531-1.189453.2519531zm12.447415 2.0390625c.625 0 1.189453-.0839844 1.69336-.2519531.503906-.1679688.947265-.4003906 1.330078-.6972656.382812-.296875.710937-.640625.984375-1.03125.273437-.390625.5-.8085938.679687-1.2539063h-2.285156c-.171875.234375-.451172.4921875-.837891.7734375-.386718.28125-.908203.421875-1.564453.421875-.382812 0-.746094-.0683594-1.089844-.2050781-.34375-.1367188-.638671-.3203125-.884765-.5507813-.246094-.2304687-.451172-.4980468-.615235-.8027344-.164062-.3046874-.261718-.625-.292968-.9609374h7.6875c.015625-.078125.03125-.171875.046875-.28125.015625-.0859376.03125-.1894532.046875-.3105469.015625-.1210938.023437-.2441407.023437-.3691407 0-.8125-.132812-1.5546874-.398437-2.2265624s-.625-1.2519532-1.078125-1.7402344c-.453125-.4882813-.988282-.8691406-1.605469-1.1425782-.617188-.2734374-1.269531-.4101562-1.957031-.4101562s-1.339844.1367188-1.957032.4101562c-.617187.2734376-1.152343.6542969-1.605468 1.1425782-.453125.4882812-.8125 1.0683594-1.078125 1.7402344s-.398438 1.4140624-.398438 2.2265624c0 .8203126.132813 1.5664063.398438 2.2382813s.632812 1.2519531 1.101562 1.7402344c.46875.4882812 1.015625.8671875 1.640625 1.1367187.625.2695313 1.296875.4042969 2.015625.4042969zm2.882813-6.3515625h-5.765625c.132812-.7890625.447265-1.4277344.943359-1.9160156.496094-.4882813 1.103516-.7324219 1.822266-.7324219.851562 0 1.533203.2460937 2.044922.7382813.511718.4921874.830078 1.1289062.955078 1.9101562zm7.52554 6.3515625c1.265625 0 2.242187-.3183594 2.929687-.9550781.6875-.6367188 1.03125-1.4355469 1.03125-2.3964844 0-.640625-.144531-1.1503906-.433593-1.5292969-.289063-.3789062-.646485-.6796875-1.072266-.9023437-.425781-.2226563-.884766-.3945313-1.376953-.515625-.492188-.1210938-.951172-.2363282-1.376953-.3457032s-.783203-.2480468-1.072266-.4160156c-.289062-.1679687-.433594-.4121094-.433594-.7324218 0-.3046876.144532-.5820313.433594-.8320313.289063-.25.707031-.375 1.253906-.375.539063 0 .957032.1289063 1.253907.3867187.296875.2578126.476562.5703126.539062.9375h2.167969c-.070313-1.0234374-.431641-1.8398437-1.083984-2.4492187-.652344-.609375-1.611329-.9140625-2.876954-.9140625-.578125 0-1.095703.0839844-1.552734.2519531-.457031.1679688-.845703.4003907-1.166016.6972657-.320312.296875-.568359.6425781-.74414 1.0371093-.175781.3945313-.263672.8144531-.263672 1.2597657 0 .640625.144531 1.1484374.433594 1.5234374.289062.375.644531.6738282 1.066406.8964844.421875.2226563.880859.3945313 1.376953.515625.496094.1210938.957031.2382813 1.382813.3515625.425781.1132813.783203.2539063 1.072265.421875.289063.1679688.433594.4121094.433594.7324219 0 .3671875-.152344.6777344-.457031.9316406-.304688.2539063-.792969.3808594-1.464844.3808594-.609375 0-1.066406-.140625-1.371094-.421875-.304687-.28125-.488281-.6601562-.550781-1.1367188h-2.15625c.0625 1.1484376.425781 2.0351563 1.089844 2.6601563.664062.625 1.660156.9375 2.988281.9375zm7.045071-12.5976563c.367188 0 .679688-.1289062.9375-.3867187.257813-.2578125.386719-.5703125.386719-.9375s-.128906-.6777344-.386719-.9316406c-.257812-.2539063-.570312-.3808594-.9375-.3808594-.367187 0-.679687.1269531-.9375.3808594-.257812.2539062-.386718.5644531-.386718.9316406 0 .375.128906.6894531.386718.9433594.257813.2539062.570313.3808593.9375.3808593zm1.078125 12.4804688v-10.8046875h-2.15625v10.8046875zm7.173978 4.078125c.75 0 1.429688-.1113281 2.039063-.3339844.609375-.2226562 1.125-.5390625 1.546875-.9492187.421875-.4101563.75-.8945313.984375-1.453125.234375-.5585938.351562-1.1660157.351562-1.8222657v-10.3242187h-1.558593l-.480469 1.0898437c-.210938-.2265624-.460938-.4296874-.75-.609375-.25-.140625-.570313-.2753906-.960938-.4042968-.390625-.1289063-.859375-.1933594-1.40625-.1933594-.65625 0-1.285156.1367188-1.886718.4101562-.601563.2734376-1.126954.6464844-1.576172 1.1191407-.449219.4726562-.804688 1.0292969-1.066407 1.6699219-.261718.640625-.392578 1.3359374-.392578 2.0859374s.13086 1.4453126.392578 2.0859376c.261719.640625.617188 1.1972656 1.066407 1.6699218.449218.4726563.974609.84375 1.576172 1.1132813.601562.2695312 1.230468.4042969 1.886718.4042969.507813 0 .945313-.0605469 1.3125-.1816407.367188-.1210937.679688-.2597656.9375-.4160156.289063-.171875.539063-.3710937.75-.5976563v1.078125c0 .78125-.248047 1.4160157-.74414 1.9042969-.496094.4882813-1.169922.7324219-2.021485.7324219-.71875 0-1.273437-.1484375-1.664062-.4453125s-.675781-.6289063-.855469-.9960937h-2.15625c.109375.453125.292969.8828124.550781 1.2890624.257813.40625.582032.7617188.972657 1.0664063s.849609.5488281 1.376953.7324219c.527343.1835937 1.11914.2753906 1.77539.2753906zm.023438-6.4804688c-.398438 0-.777344-.0839843-1.136719-.2519531-.359375-.1679687-.679687-.4003906-.960937-.6972656s-.50586-.640625-.673829-1.03125c-.167968-.390625-.251953-.8085937-.251953-1.2539063 0-.453125.083985-.875.251953-1.265625.167969-.390625.388672-.734375.66211-1.03125.273437-.296875.59375-.5292968.960937-.6972656.367188-.1679687.742188-.2519531 1.125-.2519531.382813 0 .757813.0839844 1.125.2519531.367188.1679688.6875.4003906.960938.6972656.273437.296875.49414.6425782.662109 1.0371094.167969.3945313.251953.8144532.251953 1.2597656 0 .4453126-.083984.8632813-.251953 1.2539063s-.388672.734375-.662109 1.03125c-.273438.296875-.589844.5292969-.949219.6972656-.359375.1679688-.730469.2519531-1.113281.2519531zm9.658353 2.4023438v-6.234375c0-.359375.068359-.6972656.205078-1.0136719.136718-.3164062.324218-.5957031.5625-.8378906.238281-.2421875.517578-.4355469.83789-.5800781.320313-.1445313.664063-.2167969 1.03125-.2167969.335938 0 .65625.0722656.960938.2167969.304687.1445312.574219.3378906.808594.5800781s.419921.5234375.55664.84375.205078.65625.205078 1.0078125v6.234375h2.15625v-6.234375c0-.6953125-.113281-1.3300781-.339843-1.9042969-.226563-.5742187-.535157-1.0644531-.925782-1.4707031s-.849609-.7265625-1.376953-.9609375-1.08789-.3515625-1.68164-.3515625c-.546875 0-1.015625.0644531-1.40625.1933594-.390625.1289062-.714844.2636718-.972657.4042968-.28125.1796876-.527343.3828126-.738281.609375l-.480469-1.0898437h-1.558593v10.8046875z" fill="#fff" fill-rule="nonzero"/></g></svg>