<svg height="543" viewBox="0 0 394 543" width="394" xmlns="http://www.w3.org/2000/svg"><g fill="none" fill-rule="evenodd"><path d="m0 0h394v543h-394z" fill="#4a40fd"/><g transform="translate(136 56)"><path d="m111.466667.534694h48.230769v48.122449h-48.230769z" fill="#251db3"/><path d="m113.610256 128.277185 43.894244.049346.049346 43.894243-43.894244-.049345z" fill="#ffd753" transform="matrix(.70710678 -.70710678 .70710678 .70710678 -66.531009 139.877895)"/><ellipse cx="28.938462" cy="146.506122" fill="#f2093d" rx="28.938462" ry="28.873469"/><ellipse cx="180.061538" cy="233.126531" fill="#44c2ff" rx="28.938462" ry="28.873469"/><g stroke="#fff" stroke-width="3"><path d="m28.9384615 92.5020408h106.6435895m-106.107692-1.6040816v20.3183678"/><path d="m118.040659 135.277551h127.257143" transform="matrix(0 1 -1 0 316.946782 -46.39168)"/><path d="m125.422868 64.697959h20.318367" transform="matrix(0 1 -1 0 200.28001 -70.884092)"/><path d="m80.9205128 72.7183673v20.3183674m-1.0717949-18.7142857h101.8205131"/><path d="m125.958765 102.128938 20.318367-2.14359" transform="matrix(0 1 -1 0 237.175092 -35.060806)"/></g></g><path d="m53.2734375 476.117188v-5.519532h3.2460937c.65625 0 1.2753907-.128906 1.8574219-.386718.5820313-.257813 1.0898438-.601563 1.5234375-1.03125.4335938-.429688.7773438-.9375 1.03125-1.523438.2539063-.585938.3808594-1.207031.3808594-1.863281s-.1269531-1.275391-.3808594-1.857422c-.2539062-.582031-.5976562-1.089844-1.03125-1.523438-.4335937-.433593-.9414062-.777343-1.5234375-1.03125-.5820312-.253906-1.2011719-.380859-1.8574219-.380859h-5.5195312v15.117188zm3.2460937-7.675782h-3.2460937v-5.285156h3.2460937c.3359376 0 .6542969.072266.9550782.216797.3007812.144531.5683594.335937.8027344.574219.234375.238281.4199218.517578.5566406.83789.1367187.320313.2050781.65625.2050781 1.007813 0 .367187-.0683594.710937-.2050781 1.03125-.1367188.320312-.3222656.601562-.5566406.84375-.234375.242187-.5019532.43164-.8027344.568359-.3007813.136719-.6191406.205078-.9550782.205078zm8.9552278 7.675782v-6.117188c0-.351562.0683594-.6875.2050781-1.007812.1367188-.320313.3242188-.601563.5625-.84375.2382813-.242188.5175782-.435547.8378907-.580079.3203125-.144531.6640625-.216797 1.03125-.216797.0859375 0 .171875.009766.2578125.029297.0859375.019532.1679687.03711.2460937.052735.0859375.015625.1601563.03125.2226563.046875v-2.167969c-.0625-.015625-.125-.03125-.1875-.046875-.0703125-.015625-.1464844-.03125-.2285157-.046875-.0820312-.015625-.1855468-.023438-.3105468-.023438-.4609375 0-.8632813.064454-1.2070313.19336s-.6289062.263672-.8554687.404297c-.265625.179687-.4960938.382812-.6914063.609375l-.4804687-1.089844h-1.5585938v10.804688zm9.4474152.117187c.71875 0 1.390625-.134766 2.015625-.404297s1.1738282-.648437 1.6464844-1.136719c.4726563-.488281.8398438-1.070312 1.1015625-1.746093.2617188-.675782.3925781-1.419922.3925781-2.232422s-.1308593-1.554688-.3925781-2.226563c-.2617187-.671875-.6289062-1.251953-1.1015625-1.740234-.4726562-.488281-1.0214844-.869141-1.6464844-1.142578-.625-.273438-1.296875-.410157-2.015625-.410157s-1.390625.136719-2.015625.410157c-.625.273437-1.1738281.654297-1.6464843 1.142578-.4726563.488281-.8398438 1.068359-1.1015625 1.740234-.2617188.671875-.3925782 1.414063-.3925782 2.226563 0 .820312.1308594 1.566406.3925782 2.238281.2617187.671875.6289062 1.251953 1.1015625 1.740234.4726562.488282 1.0214843.867188 1.6464843 1.136719s1.296875.404297 2.015625.404297zm0-2.039063c-.3828125 0-.7578125-.083984-1.125-.251953-.3671875-.167968-.6875-.408203-.9609375-.720703s-.4941406-.679687-.6621093-1.101562c-.1679688-.421875-.2519532-.890625-.2519532-1.40625 0-.507813.0839844-.97461.2519532-1.400391.1679687-.425781.3886718-.794922.6621093-1.107422s.59375-.552734.9609375-.720703.7421875-.251953 1.125-.251953.7578125.083984 1.125.251953.6875.408203.9609375.720703.4941407.679688.6621094 1.101563c.1679688.421875.2519531.890625.2519531 1.40625s-.0839843.984375-.2519531 1.40625c-.1679687.421875-.3886719.789062-.6621094 1.101562s-.59375.552735-.9609375.720703c-.3671875.167969-.7421875.251953-1.125.251953zm11.4981966 2.039063c.328125 0 .6132812-.039063.8554687-.117187.1328125-.03125.2460938-.070313.3398438-.117188v-1.921875c-.0703125.03125-.1445313.054687-.2226563.070313-.078125.015624-.1621094.027343-.2519531.035156-.0898438.007812-.1738281.011718-.2519531.011718-.4765625 0-.875-.160156-1.1953125-.480468-.3203125-.320313-.4804688-.71875-.4804688-1.195313v-5.167969h2.4023438v-2.039062h-2.4023438v-2.871094h-1.7929687v1.441406c0 .414063-.1367188.75586-.4101563 1.025391s-.6171875.404297-1.03125.404297h-.84375v2.039062h1.921875v5.167969c0 .578125.0839844 1.09375.2519531 1.546875.1679688.453125.4042969.839844.7089844 1.160156.3046875.320313.6621094.56836 1.0722656.744141.4101563.175781.8535157.263672 1.3300782.263672zm7.7716339 0c.71875 0 1.390625-.134766 2.015625-.404297s1.1738282-.648437 1.6464844-1.136719c.4726563-.488281.8398438-1.070312 1.1015625-1.746093.2617188-.675782.3925781-1.419922.3925781-2.232422s-.1308593-1.554688-.3925781-2.226563c-.2617187-.671875-.6289062-1.251953-1.1015625-1.740234-.4726562-.488281-1.0214844-.869141-1.6464844-1.142578-.625-.273438-1.296875-.410157-2.015625-.410157s-1.390625.136719-2.015625.410157c-.625.273437-1.1738281.654297-1.6464843 1.142578-.4726563.488281-.8398438 1.068359-1.1015625 1.740234-.2617188.671875-.3925782 1.414063-.3925782 2.226563 0 .820312.1308594 1.566406.3925782 2.238281.2617187.671875.6289062 1.251953 1.1015625 1.740234.4726562.488282 1.0214843.867188 1.6464843 1.136719s1.296875.404297 2.015625.404297zm0-2.039063c-.3828125 0-.7578125-.083984-1.125-.251953-.3671875-.167968-.6875-.408203-.9609375-.720703s-.4941406-.679687-.6621093-1.101562c-.1679688-.421875-.2519532-.890625-.2519532-1.40625 0-.507813.0839844-.97461.2519532-1.400391.1679687-.425781.3886718-.794922.6621093-1.107422s.59375-.552734.9609375-.720703.7421875-.251953 1.125-.251953.7578125.083984 1.125.251953.6875.408203.9609375.720703.4941407.679688.6621094 1.101563c.1679688.421875.2519531.890625.2519531 1.40625s-.0839843.984375-.2519531 1.40625c-.1679687.421875-.3886719.789062-.6621094 1.101562s-.59375.552735-.9609375.720703c-.3671875.167969-.7421875.251953-1.125.251953zm11.4981963 2.039063c.328125 0 .613282-.039063.855469-.117187.132813-.03125.246094-.070313.339844-.117188v-1.921875c-.070313.03125-.144531.054687-.222656.070313-.078125.015624-.16211.027343-.251954.035156-.089843.007812-.173828.011718-.251953.011718-.476562 0-.875-.160156-1.195312-.480468-.320313-.320313-.480469-.71875-.480469-1.195313v-5.167969h2.402344v-2.039062h-2.402344v-2.871094h-1.792969v1.441406c0 .414063-.136718.75586-.410156 1.025391-.273437.269531-.617187.404297-1.03125.404297h-.84375v2.039062h1.921875v5.167969c0 .578125.083984 1.09375.251953 1.546875s.404297.839844.708985 1.160156c.304687.320313.662109.56836 1.072265.744141s.853516.263672 1.330078.263672zm4.654447 3.84375c.414062 0 .785156-.056641 1.113281-.169922s.626953-.296875.896484-.550781c.269532-.253906.519532-.585938.75-.996094.230469-.410156.466797-.919922.708985-1.529297l4.570312-11.519531h-2.285156l-3 7.804688-3-7.804688h-2.285156l4.207031 10.441406-.363281 1.078125c-.125.375-.34375.689453-.65625.94336-.3125.253906-.773438.380859-1.382813.380859v1.804688c.070313.03125.144532.054687.222657.070312s.158203.027344.240234.035156c.082031.007813.169922.011719.263672.011719zm11.603665-.117187v-4.921876c.210937.21875.460937.417969.75.597657.25.164062.558594.304687.925781.421875.367188.117187.808594.175781 1.324219.175781.71875 0 1.390625-.134766 2.015625-.404297s1.173828-.648437 1.646484-1.136719c.472657-.488281.841797-1.070312 1.107422-1.746093.265625-.675782.398438-1.419922.398438-2.232422s-.132813-1.554688-.398438-2.226563-.634765-1.251953-1.107422-1.740234c-.472656-.488281-1.021484-.869141-1.646484-1.142578-.625-.273438-1.296875-.410157-2.015625-.410157-.546875 0-1.015625.064454-1.40625.19336s-.714844.263672-.972656.404297c-.28125.179687-.527344.382812-.738282.609375l-.480468-1.089844h-1.558594v14.648438zm2.882812-5.765626c-.414062 0-.810546-.083984-1.189453-.251953-.378906-.167968-.710937-.408203-.996093-.720703-.285157-.3125-.511719-.679687-.679688-1.101562s-.251953-.890625-.251953-1.40625c0-.507813.083984-.97461.251953-1.400391s.394531-.794922.679688-1.107422c.285156-.3125.617187-.552734.996093-.720703.378907-.167969.775391-.251953 1.189453-.251953.414063 0 .808594.083984 1.183594.251953s.707031.408203.996094.720703c.289062.3125.517578.679688.685547 1.101563s.251953.890625.251953 1.40625-.083984.984375-.251953 1.40625-.396485.789062-.685547 1.101562c-.289063.3125-.621094.552735-.996094.720703-.375.167969-.769531.251953-1.183594.251953zm8.369291-10.558593c.367187 0 .679687-.128907.9375-.386719.257812-.257812.386718-.570312.386718-.9375s-.128906-.677734-.386718-.931641c-.257813-.253906-.570313-.380859-.9375-.380859-.367188 0-.679688.126953-.9375.380859-.257813.253907-.386719.564453-.386719.931641 0 .375.128906.689453.386719.943359.257812.253907.570312.38086.9375.38086zm1.078125 12.480469v-10.804688h-2.15625v10.804688zm4.771634 0v-6.234376c0-.359374.068359-.697265.205078-1.013671.136719-.316407.324219-.595703.5625-.837891s.517578-.435547.83789-.580078c.320313-.144531.664063-.216797 1.03125-.216797.335938 0 .65625.072266.960938.216797.304687.144531.574219.33789.808594.580078s.419922.523438.55664.84375c.136719.320312.205078.65625.205078 1.007812v6.234376h2.15625v-6.234376c0-.695312-.113281-1.330078-.339843-1.904296-.226563-.574219-.535157-1.064454-.925782-1.470704s-.849609-.726562-1.376953-.960937c-.527343-.234375-1.08789-.351563-1.68164-.351563-.546875 0-1.015625.064454-1.40625.19336s-.714844.263672-.972657.404297c-.28125.179687-.527343.382812-.738281.609375l-.480469-1.089844h-1.558593v10.804688zm14.36929 4.078124c.75 0 1.429688-.111328 2.039063-.333984s1.125-.539062 1.546875-.949219c.421875-.410156.75-.894531.984375-1.453125.234375-.558593.351562-1.166015.351562-1.822265v-10.324219h-1.558594l-.480468 1.089844c-.210938-.226563-.460938-.429688-.75-.609375-.25-.140625-.570313-.275391-.960938-.404297s-.859375-.19336-1.40625-.19336c-.65625 0-1.285156.136719-1.886719.410157-.601562.273437-1.126953.646484-1.576172 1.11914-.449218.472657-.804687 1.029297-1.066406 1.669922s-.392578 1.335938-.392578 2.085938.130859 1.445312.392578 2.085937.617188 1.197266 1.066406 1.669922c.449219.472656.97461.84375 1.576172 1.113281.601563.269532 1.230469.404297 1.886719.404297.507813 0 .945313-.060547 1.3125-.18164.367188-.121094.679688-.259766.9375-.416016.289063-.171875.539063-.371094.75-.597656v1.078125c0 .78125-.248047 1.416015-.744141 1.904297-.496093.488281-1.169921.732422-2.021484.732422-.71875 0-1.273437-.148438-1.664062-.445313s-.675782-.628906-.855469-.996094h-2.15625c.109375.453125.292969.882813.550781 1.289063.257813.40625.582031.761718.972656 1.066406s.84961.548828 1.376953.732422c.527344.183594 1.119141.27539 1.775391.27539zm.023438-6.480468c-.398438 0-.777344-.083985-1.136719-.251953-.359375-.167969-.679688-.400391-.960938-.697266s-.505859-.640625-.673828-1.03125-.251953-.808594-.251953-1.253906c0-.453125.083984-.875.251953-1.265625s.388672-.734375.66211-1.03125c.273437-.296875.59375-.529297.960937-.697266.367188-.167969.742188-.251953 1.125-.251953.382813 0 .757813.083984 1.125.251953.367188.167969.6875.400391.960938.697266.273437.296875.49414.642578.662109 1.037109s.251953.814453.251953 1.259766c0 .445312-.083984.863281-.251953 1.253906s-.388672.734375-.662109 1.03125c-.273438.296875-.589844.529297-.949219.697266-.359375.167968-.730469.251953-1.113281.251953z" fill="#fff" fill-rule="nonzero"/></g></svg>