<svg height="449" viewBox="0 0 512 449" width="512" xmlns="http://www.w3.org/2000/svg"><g fill="none" fill-rule="evenodd"><path d="m0 0h512v449h-512z" fill="#f22f2d"/><g transform="translate(153 170)"><path d="m104 0c45.103323 0 84.275541 25.3266978 103.999218 62.4985254-19.72438 37.1752309-58.8963 62.5014746-103.999218 62.5014746-45.1029184 0-84.2748381-25.3262437-103.99868708-62.4975256 19.72314658-37.1757766 58.89536428-62.5024744 103.99868708-62.5024744z" fill="#ffd1db"/><ellipse cx="105.106383" cy="63.053097" fill="#4a40fd" rx="52" ry="51.99115"/></g><path d="m68.1953125 67.1171875c.8203125 0 1.5742187-.1386719 2.2617187-.4160156.6875-.2773438 1.2832032-.6679688 1.7871094-1.171875.5039063-.5039063.8964844-1.1015625 1.1777344-1.7929688.28125-.6914062.421875-1.4433593.421875-2.2558593v-9.5976563h-2.2851562v9.5976563c0 .546875-.0839844 1.0390624-.2519532 1.4765624-.1679687.4375-.4042968.8125-.7089844 1.125-.3046874.3125-.6621093.5566407-1.0722656.7324219-.4101562.1757813-.8535156.2636719-1.3300781.2636719s-.9179687-.0878906-1.3242187-.2636719c-.40625-.1757812-.7617188-.4199219-1.0664063-.7324219s-.5410156-.6875-.7089844-1.125c-.1679687-.4375-.2519531-.9296874-.2519531-1.4765624v-9.5976563h-2.2851562v9.5976563c0 .8125.140625 1.5644531.421875 2.2558593.28125.6914063.6738281 1.2890625 1.1777343 1.7929688.5039063.5039062 1.0996094.8945312 1.7871094 1.171875.6875.2773437 1.4375.4160156 2.25.4160156zm9.693509-.1171875 3.5976563-5.765625 3.5976562 5.765625h2.5195313l-4.8046875-7.6757812 4.5585937-7.4414063h-2.5195312l-3.3515625 5.5195313-3.3632813-5.5195313h-2.5195312l4.5585937 7.4414063-4.8046875 7.6757812zm18.2854555 0v-6.1171875c0-.3515625.0683594-.6875.2050781-1.0078125.1367188-.3203125.3242188-.6015625.5625-.84375.2382813-.2421875.5175782-.4355469.8378907-.5800781.3203125-.1445313.6640625-.2167969 1.03125-.2167969.0859375 0 .171875.0097656.2578125.0292969.0859375.0195312.1679687.0371093.2460937.0527343.0859375.015625.1601563.03125.2226563.046875v-2.1679687l-.1875-.046875c-.0703125-.015625-.1464844-.03125-.2285157-.046875-.0820312-.015625-.1855468-.0234375-.3105468-.0234375-.4609375 0-.8632813.0644531-1.2070313.1933594-.34375.1289062-.6289062.2636718-.8554687.4042968-.265625.1796876-.4960938.3828126-.6914063.609375l-.4804687-1.0898437h-1.5585938v10.8046875zm9.564603.1171875c.625 0 1.189453-.0839844 1.693359-.2519531.503906-.1679688.947266-.4003906 1.330078-.6972656.382813-.296875.710938-.640625.984375-1.03125.273438-.390625.5-.8085938.679688-1.2539063h-2.285157c-.171875.234375-.451171.4921875-.83789.7734375s-.908203.421875-1.564453.421875c-.382813 0-.746094-.0683594-1.089844-.2050781-.34375-.1367188-.638672-.3203125-.884766-.5507813-.246093-.2304687-.451172-.4980468-.615234-.8027344-.164063-.3046874-.261719-.625-.292969-.9609374h7.6875c.015625-.078125.03125-.171875.046875-.28125.015625-.0859376.03125-.1894532.046875-.3105469.015625-.1210938.023438-.2441407.023438-.3691407 0-.8125-.132813-1.5546874-.398438-2.2265624s-.625-1.2519532-1.078125-1.7402344c-.453125-.4882813-.988281-.8691406-1.605469-1.1425782-.617187-.2734374-1.269531-.4101562-1.957031-.4101562s-1.339844.1367188-1.957031.4101562c-.617188.2734376-1.152344.6542969-1.605469 1.1425782-.453125.4882812-.8125 1.0683594-1.078125 1.7402344s-.398437 1.4140624-.398437 2.2265624c0 .8203126.132812 1.5664063.398437 2.2382813s.632813 1.2519531 1.101563 1.7402344c.46875.4882812 1.015625.8671875 1.640625 1.1367187.625.2695313 1.296875.4042969 2.015625.4042969zm2.882812-6.3515625h-5.765625c.132813-.7890625.447266-1.4277344.94336-1.9160156.496093-.4882813 1.103515-.7324219 1.822265-.7324219.851563 0 1.533203.2460937 2.044922.7382813.511719.4921874.830078 1.1289062.955078 1.9101562zm7.525541 6.3515625c1.265625 0 2.242187-.3183594 2.929687-.9550781.6875-.6367188 1.03125-1.4355469 1.03125-2.3964844 0-.640625-.144531-1.1503906-.433594-1.5292969-.289062-.3789062-.646484-.6796875-1.072265-.9023437-.425782-.2226563-.884766-.3945313-1.376953-.515625-.492188-.1210938-.951172-.2363282-1.376954-.3457032-.425781-.109375-.783203-.2480468-1.072265-.4160156-.289063-.1679687-.433594-.4121094-.433594-.7324218 0-.3046876.144531-.5820313.433594-.8320313.289062-.25.707031-.375 1.253906-.375.539063 0 .957031.1289063 1.253906.3867187.296875.2578126.476563.5703126.539063.9375h2.167969c-.070313-1.0234374-.431641-1.8398437-1.083985-2.4492187s-1.611328-.9140625-2.876953-.9140625c-.578125 0-1.095703.0839844-1.552734.2519531-.457032.1679688-.845703.4003907-1.166016.6972657-.320312.296875-.568359.6425781-.744141 1.0371093-.175781.3945313-.263671.8144531-.263671 1.2597657 0 .640625.144531 1.1484374.433593 1.5234374.289063.375.644532.6738282 1.066407.8964844.421875.2226563.880859.3945313 1.376953.515625.496093.1210938.957031.2382813 1.382812.3515625.425781.1132813.783203.2539063 1.072266.421875.289062.1679688.433594.4121094.433594.7324219 0 .3671875-.152344.6777344-.457032.9316406-.304687.2539063-.792968.3808594-1.464843.3808594-.609375 0-1.066407-.140625-1.371094-.421875-.304688-.28125-.488281-.6601562-.550781-1.1367188h-2.15625c.0625 1.1484376.425781 2.0351563 1.089843 2.6601563.664063.625 1.660157.9375 2.988282.9375zm10.642727 0c.625 0 1.189453-.0839844 1.69336-.2519531.503906-.1679688.947265-.4003906 1.330078-.6972656.382812-.296875.710937-.640625.984375-1.03125.273437-.390625.5-.8085938.679687-1.2539063h-2.285156c-.171875.234375-.451172.4921875-.837891.7734375-.386718.28125-.908203.421875-1.564453.421875-.382812 0-.746093-.0683594-1.089843-.2050781-.34375-.1367188-.638672-.3203125-.884766-.5507813-.246094-.2304687-.451172-.4980468-.615234-.8027344-.164063-.3046874-.261719-.625-.292969-.9609374h7.6875c.015625-.078125.03125-.171875.046875-.28125.015625-.0859376.03125-.1894532.046875-.3105469.015625-.1210938.023437-.2441407.023437-.3691407 0-.8125-.132812-1.5546874-.398437-2.2265624s-.625-1.2519532-1.078125-1.7402344c-.453125-.4882813-.988281-.8691406-1.605469-1.1425782-.617187-.2734374-1.269531-.4101562-1.957031-.4101562s-1.339844.1367188-1.957031.4101562c-.617188.2734376-1.152344.6542969-1.605469 1.1425782-.453125.4882812-.8125 1.0683594-1.078125 1.7402344s-.398438 1.4140624-.398438 2.2265624c0 .8203126.132813 1.5664063.398438 2.2382813s.632812 1.2519531 1.101562 1.7402344c.46875.4882812 1.015625.8671875 1.640625 1.1367187.625.2695313 1.296875.4042969 2.015625.4042969zm2.882813-6.3515625h-5.765625c.132812-.7890625.447265-1.4277344.943359-1.9160156.496094-.4882813 1.103516-.7324219 1.822266-.7324219.851562 0 1.533203.2460937 2.044922.7382813.511718.4921874.830078 1.1289062.955078 1.9101562zm7.279446 6.3515625c.546875 0 1.015625-.0605469 1.40625-.1816406.390625-.1210938.714844-.2597657.972656-.4160157.289063-.171875.539063-.3710937.75-.5976562l.480469 1.078125h1.558594v-7.078125c0-.546875-.101563-1.0527344-.304688-1.5175781-.203125-.4648438-.488281-.8691407-.855468-1.2128907-.367188-.34375-.810547-.6152343-1.330078-.8144531-.519532-.1992187-1.091797-.2988281-1.716797-.2988281-1.328125 0-2.363282.3203125-3.105469.9609375-.742188.640625-1.144531 1.4414063-1.207031 2.4023437h2.15625c.0625-.3671874.257812-.6796874.585937-.9375.328125-.2578124.851563-.3867187 1.570313-.3867187.671875 0 1.179687.1640625 1.523437.4921875s.515625.765625.515625 1.3125v.3632812c-1.328125 0-2.423828.0878907-3.287109.2636719-.863281.1757813-1.546875.4179688-2.050781.7265625-.503907.3085938-.859375.6835938-1.066407 1.125-.207031.4414063-.310547.9355469-.310547 1.4824219 0 .9609375.31836 1.7402344.955079 2.3378906.636718.5976563 1.55664.8964844 2.759765.8964844zm.128906-1.921875c-.546875 0-.964843-.1230469-1.253906-.3691406-.289062-.2460938-.433594-.5214844-.433594-.8261719 0-.2734375.056641-.5214844.169922-.7441406.113282-.2226563.337891-.4101563.673828-.5625.335938-.1523438.798829-.2734375 1.388672-.3632813.589844-.0898437 1.365235-.1347656 2.326172-.1347656v.5859375c0 .671875-.25 1.2421875-.75 1.7109375s-1.207031.703125-2.121094.703125zm9.681791 1.8046875v-6.1171875c0-.3515625.068359-.6875.205078-1.0078125s.324219-.6015625.5625-.84375.517578-.4355469.83789-.5800781c.320313-.1445313.664063-.2167969 1.03125-.2167969.085938 0 .171875.0097656.257813.0292969.085937.0195312.167969.0371093.246094.0527343.085937.015625.160156.03125.222656.046875v-2.1679687l-.1875-.046875c-.070313-.015625-.146484-.03125-.228516-.046875-.082031-.015625-.185547-.0234375-.310547-.0234375-.460937 0-.863281.0644531-1.207031.1933594-.34375.1289062-.628906.2636718-.855469.4042968-.265625.1796876-.496093.3828126-.691406.609375l-.480469-1.0898437h-1.558593v10.8046875zm9.447415.1171875c.625 0 1.205078-.1035156 1.740234-.3105469.535157-.2070312 1.011719-.4941406 1.429688-.8613281s.763672-.7988281 1.037109-1.2949219c.273438-.4960937.472656-1.0332031.597656-1.6113281h-2.285156c-.171875.609375-.466797 1.1015625-.884765 1.4765625-.417969.375-.962891.5625-1.634766.5625-.382813 0-.757813-.0839844-1.125-.2519531-.367188-.1679688-.6875-.4082031-.960938-.7207031-.273437-.3125-.49414-.6796876-.662109-1.1015626s-.251953-.890625-.251953-1.40625c0-.5078124.083984-.9746093.251953-1.4003906.167969-.4257812.388672-.7949218.662109-1.1074218.273438-.3125.59375-.5527344.960938-.7207032.367187-.1679687.742187-.2519531 1.125-.2519531.671875 0 1.214844.1875 1.628906.5625.414063.375.710938.8671875.890625 1.4765625h2.285156c-.132812-.5703125-.333984-1.1035156-.603515-1.5996094-.269531-.4960937-.613281-.9296875-1.03125-1.3007812-.417969-.3710938-.894531-.6601563-1.429688-.8671875-.535156-.2070313-1.115234-.3105469-1.740234-.3105469-.71875 0-1.390625.1367188-2.015625.4101562-.625.2734376-1.173828.6542969-1.646484 1.1425782-.472657.4882812-.839844 1.0683594-1.101563 1.7402344s-.392578 1.4140624-.392578 2.2265624c0 .8203126.130859 1.5664063.392578 2.2382813s.628906 1.2519531 1.101563 1.7402344c.472656.4882812 1.021484.8671875 1.646484 1.1367187.625.2695313 1.296875.4042969 2.015625.4042969zm8.966947-.1171875v-6.234375c0-.359375.068359-.6972656.205078-1.0136719.136718-.3164062.326172-.5957031.568359-.8378906.242188-.2421875.523438-.4355469.84375-.5800781.320313-.1445313.664063-.2167969 1.03125-.2167969.335938 0 .65625.0722656.960938.2167969.304687.1445312.572265.3378906.802734.5800781s.414062.5234375.550781.84375.205078.65625.205078 1.0078125v6.234375h2.15625v-6.234375c0-.6953125-.111328-1.3300781-.333984-1.9042969-.222656-.5742187-.53125-1.0644531-.925781-1.4707031-.394532-.40625-.855469-.7265625-1.382813-.9609375s-1.08789-.3515625-1.68164-.3515625c-.476563 0-.902344.0644531-1.277344.1933594-.375.1289062-.691406.2636718-.949219.4042968-.289062.1796876-.546875.3828126-.773437.609375v-5.4023437h-2.15625v15.1171875z" fill="#fff" fill-rule="nonzero"/></g></svg>