<svg height="449" viewBox="0 0 352 449" width="352" xmlns="http://www.w3.org/2000/svg"><g fill="none" fill-rule="evenodd"><path d="m0 0h352v449h-352z" fill="#ffd753"/><g transform="translate(56 187)"><path d="m179.085015 214.433707c13.999692 0 25.348692-11.532847 25.348692-25.75935s-11.349-25.759372-25.348692-25.759372" fill="#fff" transform="matrix(0 -1 1 0 3.085015 380.433707)"/><rect fill="#f22f2d" height="51.2" rx="25.6" width="51.2"/><rect fill="#4a40fd" height="51.2" rx="25.6" width="51.2" x="60"/><rect fill="#4a40fd" height="51.2" rx="25.6" width="51.2" y="59"/><g fill="#fff"><path d="m85.6 58c14.1384896 0 25.6 11.4615104 25.6 25.6v118h-51.2v-118c0-14.1384896 11.4615104-25.6 25.6-25.6z"/><path d="m138.6 157c14.13849 0 25.6 11.46151 25.6 25.6v18.4h-51.2v-18.4c0-14.13849 11.46151-25.6 25.6-25.6z"/></g></g><path d="m60.078125 69v-15.1171875h-2.2734375v15.1171875zm5.1231965 0v-6.234375c0-.359375.0683594-.6972656.2050781-1.0136719.1367188-.3164062.3242188-.5957031.5625-.8378906.2382813-.2421875.5175782-.4355469.8378907-.5800781.3203125-.1445313.6640625-.2167969 1.03125-.2167969.3359375 0 .65625.0722656.9609375.2167969.3046875.1445312.5742187.3378906.8085937.5800781s.4199219.5234375.5566406.84375c.1367188.3203125.2050782.65625.2050782 1.0078125v6.234375h2.15625v-6.234375c0-.6953125-.1132813-1.3300781-.3398438-1.9042969-.2265625-.5742187-.5351562-1.0644531-.9257812-1.4707031s-.8496094-.7265625-1.3769532-.9609375c-.5273437-.234375-1.0878906-.3515625-1.6816406-.3515625-.546875 0-1.015625.0644531-1.40625.1933594-.390625.1289062-.7148437.2636718-.9726562.4042968-.28125.1796876-.5273438.3828126-.7382813.609375l-.4804687-1.0898437h-1.5585938v10.8046875zm14.1349152.1171875c.328125 0 .6132813-.0390625.8554688-.1171875.1328125-.03125.2460937-.0703125.3398437-.1171875v-1.921875c-.0703125.03125-.1445312.0546875-.2226562.0703125s-.1621094.0273438-.2519531.0351562c-.0898438.0078126-.1738282.0117188-.2519532.0117188-.4765625 0-.875-.1601562-1.1953125-.4804688-.3203125-.3203124-.4804687-.71875-.4804687-1.1953124v-5.1679688h2.4023437v-2.0390625h-2.4023437v-2.8710937h-1.7929688v1.4414062c0 .4140625-.1367187.7558594-.4101562 1.0253906-.2734375.2695313-.6171875.4042969-1.03125.4042969h-.84375v2.0390625h1.921875v5.1679688c0 .578125.0839844 1.09375.2519531 1.546875.1679688.453125.4042969.8398437.7089844 1.1601562s.6621094.5683594 1.0722656.7441406c.4101563.1757813.8535156.2636719 1.3300781.2636719zm7.8888216 0c.625 0 1.1894531-.0839844 1.6933593-.2519531.5039063-.1679688.9472657-.4003906 1.3300782-.6972656s.7109375-.640625.984375-1.03125.5-.8085938.6796875-1.2539063h-2.2851563c-.171875.234375-.4511719.4921875-.8378906.7734375-.3867188.28125-.9082031.421875-1.5644531.421875-.3828125 0-.7460938-.0683594-1.0898438-.2050781-.34375-.1367188-.6386719-.3203125-.8847656-.5507813-.2460938-.2304687-.4511719-.4980468-.6152344-.8027344-.1640625-.3046874-.2617187-.625-.2929687-.9609374h7.6875c.015625-.078125.03125-.171875.046875-.28125.015625-.0859376.03125-.1894532.046875-.3105469.015625-.1210938.0234375-.2441407.0234375-.3691407 0-.8125-.1328125-1.5546874-.3984375-2.2265624s-.625-1.2519532-1.078125-1.7402344c-.453125-.4882813-.9882813-.8691406-1.6054688-1.1425782-.6171875-.2734374-1.2695312-.4101562-1.9570312-.4101562s-1.3398438.1367188-1.9570313.4101562c-.6171875.2734376-1.1523437.6542969-1.6054687 1.1425782-.453125.4882812-.8125 1.0683594-1.078125 1.7402344s-.3984375 1.4140624-.3984375 2.2265624c0 .8203126.1328125 1.5664063.3984375 2.2382813s.6328125 1.2519531 1.1015625 1.7402344c.46875.4882812 1.015625.8671875 1.640625 1.1367187.625.2695313 1.296875.4042969 2.015625.4042969zm2.8828125-6.3515625h-5.765625c.1328125-.7890625.4472656-1.4277344.9433593-1.9160156.4960938-.4882813 1.1035157-.7324219 1.8222657-.7324219.8515625 0 1.5332031.2460937 2.0449218.7382813.5117188.4921874.8300782 1.1289062.9550782 1.9101562zm6.2013214 6.234375v-6.1171875c0-.3515625.0683594-.6875.2050782-1.0078125.1367187-.3203125.3242187-.6015625.5625-.84375.2382812-.2421875.5175781-.4355469.8378906-.5800781.3203125-.1445313.6640625-.2167969 1.03125-.2167969.0859375 0 .171875.0097656.2578125.0292969.0859375.0195312.1679687.0371093.2460937.0527343.0859375.015625.1601563.03125.2226563.046875v-2.1679687c-.0625-.015625-.125-.03125-.1875-.046875-.0703125-.015625-.1464844-.03125-.2285156-.046875-.0820313-.015625-.1855469-.0234375-.3105469-.0234375-.4609375 0-.8632813.0644531-1.2070313.1933594-.34375.1289062-.6289062.2636718-.8554687.4042968-.265625.1796876-.4960938.3828126-.6914063.609375l-.4804687-1.0898437h-1.5585938v10.8046875zm8.1231968.1171875c.546875 0 1.015625-.0605469 1.40625-.1816406.390625-.1210938.714844-.2597657.972656-.4160157.289063-.171875.539063-.3710937.75-.5976562l.480469 1.078125h1.558594v-7.078125c0-.546875-.101563-1.0527344-.304688-1.5175781-.203125-.4648438-.488281-.8691407-.855469-1.2128907-.367187-.34375-.810547-.6152343-1.330078-.8144531-.519531-.1992187-1.091797-.2988281-1.716797-.2988281-1.328125 0-2.363281.3203125-3.105468.9609375-.742188.640625-1.144532 1.4414063-1.207032 2.4023437h2.15625c.0625-.3671874.257813-.6796874.585938-.9375.328125-.2578124.851562-.3867187 1.570312-.3867187.671875 0 1.179688.1640625 1.523438.4921875s.515625.765625.515625 1.3125v.3632812c-1.328125 0-2.423828.0878907-3.28711.2636719-.863281.1757813-1.546875.4179688-2.050781.7265625-.503906.3085938-.859375.6835938-1.066406 1.125-.207031.4414063-.310547.9355469-.310547 1.4824219 0 .9609375.318359 1.7402344.955078 2.3378906.636719.5976563 1.556641.8964844 2.759766.8964844zm.128906-1.921875c-.546875 0-.964844-.1230469-1.253906-.3691406-.289063-.2460938-.433594-.5214844-.433594-.8261719 0-.2734375.056641-.5214844.169922-.7441406.113281-.2226563.337891-.4101563.673828-.5625.335938-.1523438.798828-.2734375 1.388672-.3632813.589844-.0898437 1.365234-.1347656 2.326172-.1347656v.5859375c0 .671875-.25 1.2421875-.75 1.7109375s-1.207031.703125-2.121094.703125zm12.084134 1.921875c.625 0 1.205078-.1035156 1.740234-.3105469.535157-.2070312 1.011719-.4941406 1.429688-.8613281s.763672-.7988281 1.037109-1.2949219c.273438-.4960937.472657-1.0332031.597657-1.6113281h-2.285157c-.171875.609375-.466797 1.1015625-.884765 1.4765625-.417969.375-.962891.5625-1.634766.5625-.382812 0-.757812-.0839844-1.125-.2519531-.367187-.1679688-.6875-.4082031-.960937-.7207031-.273438-.3125-.494141-.6796876-.66211-1.1015626s-.251953-.890625-.251953-1.40625c0-.5078124.083984-.9746093.251953-1.4003906.167969-.4257812.388672-.7949218.66211-1.1074218.273437-.3125.59375-.5527344.960937-.7207032.367188-.1679687.742188-.2519531 1.125-.2519531.671875 0 1.214844.1875 1.628906.5625.414063.375.710938.8671875.890625 1.4765625h2.285157c-.132813-.5703125-.333985-1.1035156-.603516-1.5996094-.269531-.4960937-.613281-.9296875-1.03125-1.3007812-.417969-.3710938-.894531-.6601563-1.429688-.8671875-.535156-.2070313-1.115234-.3105469-1.740234-.3105469-.71875 0-1.390625.1367188-2.015625.4101562-.625.2734376-1.173828.6542969-1.646484 1.1425782-.472657.4882812-.839844 1.0683594-1.101563 1.7402344s-.392578 1.4140624-.392578 2.2265624c0 .8203126.130859 1.5664063.392578 2.2382813s.628906 1.2519531 1.101563 1.7402344c.472656.4882812 1.021484.8671875 1.646484 1.1367187.625.2695313 1.296875.4042969 2.015625.4042969zm11.017728 0c.328125 0 .613281-.0390625.855468-.1171875.132813-.03125.246094-.0703125.339844-.1171875v-1.921875c-.070312.03125-.144531.0546875-.222656.0703125s-.162109.0273438-.251953.0351562c-.089844.0078126-.173828.0117188-.251953.0117188-.476563 0-.875-.1601562-1.195313-.4804688-.320312-.3203124-.480469-.71875-.480469-1.1953124v-5.1679688h2.402344v-2.0390625h-2.402344v-2.8710937h-1.792968v1.4414062c0 .4140625-.136719.7558594-.410157 1.0253906-.273437.2695313-.617187.4042969-1.03125.4042969h-.84375v2.0390625h1.921875v5.1679688c0 .578125.083985 1.09375.251954 1.546875.167968.453125.404296.8398437.708984 1.1601562.304687.3203125.662109.5683594 1.072266.7441406.410156.1757813.853515.2636719 1.330078.2636719zm4.52554-12.5976563c.367187 0 .679687-.1289062.9375-.3867187.257812-.2578125.386719-.5703125.386719-.9375s-.128907-.6777344-.386719-.9316406c-.257813-.2539063-.570313-.3808594-.9375-.3808594-.367188 0-.679688.1269531-.9375.3808594-.257813.2539062-.386719.5644531-.386719.9316406 0 .375.128906.6894531.386719.9433594.257812.2539062.570312.3808593.9375.3808593zm1.078125 12.4804688v-10.8046875h-2.15625v10.8046875zm7.173978.1171875c.71875 0 1.390625-.1347656 2.015625-.4042969.625-.2695312 1.173828-.6484375 1.646484-1.1367187.472656-.4882813.839844-1.0703125 1.101563-1.7460938.261718-.6757812.392578-1.4199219.392578-2.2324219s-.13086-1.5546874-.392578-2.2265624c-.261719-.671875-.628907-1.2519532-1.101563-1.7402344-.472656-.4882813-1.021484-.8691406-1.646484-1.1425782-.625-.2734374-1.296875-.4101562-2.015625-.4101562s-1.390625.1367188-2.015625.4101562c-.625.2734376-1.173828.6542969-1.646485 1.1425782-.472656.4882812-.839843 1.0683594-1.101562 1.7402344s-.392578 1.4140624-.392578 2.2265624c0 .8203126.130859 1.5664063.392578 2.2382813s.628906 1.2519531 1.101562 1.7402344c.472657.4882812 1.021485.8671875 1.646485 1.1367187.625.2695313 1.296875.4042969 2.015625.4042969zm0-2.0390625c-.382813 0-.757813-.0839844-1.125-.2519531-.367188-.1679688-.6875-.4082031-.960938-.7207031-.273437-.3125-.49414-.6796876-.662109-1.1015626s-.251953-.890625-.251953-1.40625c0-.5078124.083984-.9746093.251953-1.4003906.167969-.4257812.388672-.7949218.662109-1.1074218.273438-.3125.59375-.5527344.960938-.7207032.367187-.1679687.742187-.2519531 1.125-.2519531.382812 0 .757812.0839844 1.125.2519531.367187.1679688.6875.4082032.960937.7207032.273438.3125.494141.6796874.66211 1.1015624.167968.421875.251953.890625.251953 1.40625s-.083985.984375-.251953 1.40625c-.167969.421875-.388672.7890626-.66211 1.1015626-.273437.3125-.59375.5527343-.960937.7207031-.367188.1679687-.742188.2519531-1.125.2519531zm9.330228 1.921875v-6.234375c0-.359375.068359-.6972656.205078-1.0136719.136718-.3164062.324218-.5957031.5625-.8378906.238281-.2421875.517578-.4355469.83789-.5800781.320313-.1445313.664063-.2167969 1.03125-.2167969.335938 0 .65625.0722656.960938.2167969.304687.1445312.574219.3378906.808594.5800781s.419921.5234375.55664.84375.205078.65625.205078 1.0078125v6.234375h2.15625v-6.234375c0-.6953125-.113281-1.3300781-.339843-1.9042969-.226563-.5742187-.535157-1.0644531-.925782-1.4707031s-.849609-.7265625-1.376953-.9609375-1.08789-.3515625-1.68164-.3515625c-.546875 0-1.015625.0644531-1.40625.1933594-.390625.1289062-.714844.2636718-.972657.4042968-.28125.1796876-.527343.3828126-.738281.609375l-.480469-1.0898437h-1.558593v10.8046875zm18.05108.1171875c.546875 0 1.015625-.0605469 1.40625-.1816406.390625-.1210938.714844-.2597657.972656-.4160157.289063-.171875.539063-.3710937.75-.5976562l.480469 1.078125h1.558594v-7.078125c0-.546875-.101563-1.0527344-.304688-1.5175781-.203125-.4648438-.488281-.8691407-.855468-1.2128907-.367188-.34375-.810547-.6152343-1.330079-.8144531-.519531-.1992187-1.091796-.2988281-1.716796-.2988281-1.328125 0-2.363282.3203125-3.105469.9609375-.742188.640625-1.144531 1.4414063-1.207031 2.4023437h2.15625c.0625-.3671874.257812-.6796874.585937-.9375.328125-.2578124.851563-.3867187 1.570313-.3867187.671875 0 1.179687.1640625 1.523437.4921875s.515625.765625.515625 1.3125v.3632812c-1.328125 0-2.423828.0878907-3.287109.2636719-.863282.1757813-1.546875.4179688-2.050782.7265625-.503906.3085938-.859375.6835938-1.066406 1.125-.207031.4414063-.310547.9355469-.310547 1.4824219 0 .9609375.31836 1.7402344.955078 2.3378906.636719.5976563 1.556641.8964844 2.759766.8964844zm.128906-1.921875c-.546875 0-.964843-.1230469-1.253906-.3691406-.289062-.2460938-.433594-.5214844-.433594-.8261719 0-.2734375.056641-.5214844.169922-.7441406.113281-.2226563.337891-.4101563.673828-.5625.335938-.1523438.798828-.2734375 1.388672-.3632813.589844-.0898437 1.365235-.1347656 2.326172-.1347656v.5859375c0 .671875-.25 1.2421875-.75 1.7109375s-1.207031.703125-2.121094.703125zm9.681791 1.8046875v-6.234375c0-.359375.068359-.6972656.205078-1.0136719.136718-.3164062.324218-.5957031.5625-.8378906.238281-.2421875.517578-.4355469.83789-.5800781.320313-.1445313.664063-.2167969 1.03125-.2167969.335938 0 .65625.0722656.960938.2167969.304687.1445312.574219.3378906.808594.5800781s.419921.5234375.55664.84375.205078.65625.205078 1.0078125v6.234375h2.15625v-6.234375c0-.6953125-.113281-1.3300781-.339843-1.9042969-.226563-.5742187-.535157-1.0644531-.925782-1.4707031s-.849609-.7265625-1.376953-.9609375-1.08789-.3515625-1.68164-.3515625c-.546875 0-1.015625.0644531-1.40625.1933594-.390625.1289062-.714844.2636718-.972657.4042968-.28125.1796876-.527343.3828126-.738281.609375l-.480469-1.0898437h-1.558593v10.8046875zm14.36929.1171875c.546875 0 1.015625-.0605469 1.40625-.1816406.390625-.1210938.714844-.2597657.972656-.4160157.28125-.171875.527344-.3710937.738281-.5976562l.480469 1.078125h1.558594v-15.1171875h-2.15625v5.4023437c-.203125-.2265624-.449219-.4296874-.738281-.609375-.257813-.140625-.570313-.2753906-.9375-.4042968-.367188-.1289063-.808594-.1933594-1.324219-.1933594-.71875 0-1.390625.1367188-2.015625.4101562-.625.2734376-1.173828.6542969-1.646485 1.1425782-.472656.4882812-.839843 1.0683594-1.101562 1.7402344s-.392578 1.4140624-.392578 2.2265624c0 .8203126.130859 1.5664063.392578 2.2382813s.628906 1.2519531 1.101562 1.7402344c.472657.4882812 1.021485.8671875 1.646485 1.1367187.625.2695313 1.296875.4042969 2.015625.4042969zm.117187-2.0390625c-.414062 0-.808593-.0839844-1.183593-.2519531-.375-.1679688-.707032-.4082031-.996094-.7207031-.289063-.3125-.517578-.6796876-.685547-1.1015626s-.251953-.890625-.251953-1.40625c0-.5078124.083984-.9746093.251953-1.4003906.167969-.4257812.396484-.7949218.685547-1.1074218.289062-.3125.621094-.5527344.996094-.7207032.375-.1679687.769531-.2519531 1.183593-.2519531.414063 0 .810547.0839844 1.189453.2519531.378907.1679688.710938.4082032.996094.7207032s.511719.6796874.679688 1.1015624c.167968.421875.251953.890625.251953 1.40625s-.083985.984375-.251953 1.40625c-.167969.421875-.394532.7890626-.679688 1.1015626s-.617187.5527343-.996094.7207031c-.378906.1679687-.77539.2519531-1.189453.2519531zm-132.5216258 28.921875v-6.4804688c0-.71875.203125-1.2988281.609375-1.7402343.40625-.4414063.8828126-.6621094 1.4296876-.6621094s1.0234374.2207031 1.4296874.6621094c.40625.4414062.609375 1.0214843.609375 1.7402343v6.4804688h2.1679688v-6.4804688c0-.71875.203125-1.2988281.609375-1.7402343.40625-.4414063.8828125-.6621094 1.4296875-.6621094.5390625 0 1.0136719.2207031 1.4238281.6621094.4101563.4414062.6152344 1.0214843.6152344 1.7402343v6.4804688h2.15625v-6.4804688c0-.6875-.0996094-1.3066406-.2988281-1.8574218-.1992188-.5507813-.4667969-1.0195313-.8027344-1.40625-.3359375-.3867188-.7265625-.6796875-1.171875-.8789063-.4453125-.1992187-.9257813-.2988281-1.4414063-.2988281-.546875 0-1.0195312.0878906-1.4179687.2636719-.3984375.1757812-.734375.3730469-1.0078125.5917969s-.4765625.4101562-.609375.5742187c-.140625.171875-.2109375.2578125-.2109375.2578125-.203125-.3046875-.4492187-.5859375-.7382813-.84375-.2578124-.2109375-.5703124-.4042969-.9375-.5800781-.3671874-.1757813-.8085937-.2636719-1.3242187-.2636719-.4140625 0-.7851563.0644531-1.1132813.1933594-.328125.1289062-.6054687.2636718-.8320312.4042968-.265625.1796876-.4960938.3828126-.6914062.609375l-.4804688-1.0898437h-1.5585938v10.8046875zm19.6544466.1171875c.71875 0 1.390625-.1347656 2.015625-.4042969.625-.2695312 1.1738281-.6484375 1.6464843-1.1367187.4726563-.4882813.8398438-1.0703125 1.1015625-1.7460938.2617188-.6757812.3925782-1.4199219.3925782-2.2324219s-.1308594-1.5546874-.3925782-2.2265624c-.2617187-.671875-.6289062-1.2519532-1.1015625-1.7402344-.4726562-.4882813-1.0214843-.8691406-1.6464843-1.1425782-.625-.2734374-1.296875-.4101562-2.015625-.4101562s-1.390625.1367188-2.015625.4101562c-.625.2734376-1.1738282.6542969-1.6464844 1.1425782-.4726563.4882812-.8398438 1.0683594-1.1015625 1.7402344-.2617188.671875-.3925781 1.4140624-.3925781 2.2265624 0 .8203126.1308593 1.5664063.3925781 2.2382813.2617187.671875.6289062 1.2519531 1.1015625 1.7402344.4726562.4882812 1.0214844.8671875 1.6464844 1.1367187.625.2695313 1.296875.4042969 2.015625.4042969zm0-2.0390625c-.3828125 0-.7578125-.0839844-1.125-.2519531-.3671875-.1679688-.6875-.4082031-.9609375-.7207031s-.4941407-.6796876-.6621094-1.1015626c-.1679688-.421875-.2519531-.890625-.2519531-1.40625 0-.5078124.0839843-.9746093.2519531-1.4003906.1679687-.4257812.3886719-.7949218.6621094-1.1074218s.59375-.5527344.9609375-.7207032c.3671875-.1679687.7421875-.2519531 1.125-.2519531s.7578125.0839844 1.125.2519531c.3671875.1679688.6875.4082032.9609375.7207032s.4941406.6796874.6621093 1.1015624c.1679688.421875.2519532.890625.2519532 1.40625s-.0839844.984375-.2519532 1.40625c-.1679687.421875-.3886718.7890626-.6621093 1.1015626s-.59375.5527343-.9609375.7207031c-.3671875.1679687-.7421875.2519531-1.125.2519531zm11.4981964 2.0390625c.328125 0 .6132813-.0390625.8554688-.1171875.1328125-.03125.2460937-.0703125.3398437-.1171875v-1.921875c-.0703125.03125-.1445312.0546875-.2226562.0703125s-.1621094.0273438-.2519531.0351562c-.0898438.0078126-.1738282.0117188-.2519532.0117188-.4765625 0-.875-.1601562-1.1953125-.4804688-.3203125-.3203124-.4804687-.71875-.4804687-1.1953124v-5.1679688h2.4023437v-2.0390625h-2.4023437v-2.8710937h-1.7929688v1.4414062c0 .4140625-.1367187.7558594-.4101562 1.0253906-.2734375.2695313-.6171875.4042969-1.03125.4042969h-.84375v2.0390625h1.921875v5.1679688c0 .578125.0839844 1.09375.2519531 1.546875.1679688.453125.4042969.8398437.7089844 1.1601562s.6621094.5683594 1.0722656.7441406c.4101563.1757813.8535156.2636719 1.3300781.2636719zm4.5255403-12.5976563c.3671875 0 .6796875-.1289062.9375-.3867187s.3867187-.5703125.3867187-.9375-.1289062-.6777344-.3867187-.9316406c-.2578125-.2539063-.5703125-.3808594-.9375-.3808594s-.6796875.1269531-.9375.3808594c-.2578125.2539062-.3867188.5644531-.3867188.9316406 0 .375.1289063.6894531.3867188.9433594.2578125.2539062.5703125.3808593.9375.3808593zm1.078125 12.4804688v-10.8046875h-2.15625v10.8046875zm7.1739775.1171875c.71875 0 1.390625-.1347656 2.015625-.4042969.625-.2695312 1.173828-.6484375 1.646485-1.1367187.472656-.4882813.839843-1.0703125 1.101562-1.7460938.261719-.6757812.392578-1.4199219.392578-2.2324219s-.130859-1.5546874-.392578-2.2265624-.628906-1.2519532-1.101562-1.7402344c-.472657-.4882813-1.021485-.8691406-1.646485-1.1425782-.625-.2734374-1.296875-.4101562-2.015625-.4101562s-1.390625.1367188-2.015625.4101562c-.625.2734376-1.173828.6542969-1.6464841 1.1425782-.4726563.4882812-.8398438 1.0683594-1.1015625 1.7402344-.2617188.671875-.3925782 1.4140624-.3925782 2.2265624 0 .8203126.1308594 1.5664063.3925782 2.2382813.2617187.671875.6289062 1.2519531 1.1015625 1.7402344.4726561.4882812 1.0214841.8671875 1.6464841 1.1367187.625.2695313 1.296875.4042969 2.015625.4042969zm0-2.0390625c-.382812 0-.757812-.0839844-1.125-.2519531-.367187-.1679688-.6875-.4082031-.960937-.7207031-.273438-.3125-.494141-.6796876-.66211-1.1015626-.167968-.421875-.251953-.890625-.251953-1.40625 0-.5078124.083985-.9746093.251953-1.4003906.167969-.4257812.388672-.7949218.66211-1.1074218.273437-.3125.59375-.5527344.960937-.7207032.367188-.1679687.742188-.2519531 1.125-.2519531.382813 0 .757813.0839844 1.125.2519531.367188.1679688.6875.4082032.960938.7207032.273437.3125.49414.6796874.662109 1.1015624s.251953.890625.251953 1.40625-.083984.984375-.251953 1.40625-.388672.7890626-.662109 1.1015626c-.273438.3125-.59375.5527343-.960938.7207031-.367187.1679687-.742187.2519531-1.125.2519531zm9.330228 1.921875v-6.234375c0-.359375.068359-.6972656.205078-1.0136719.136719-.3164062.324219-.5957031.5625-.8378906s.517578-.4355469.837891-.5800781c.320312-.1445313.664062-.2167969 1.03125-.2167969.335937 0 .65625.0722656.960937.2167969.304688.1445312.574219.3378906.808594.5800781s.419922.5234375.556641.84375c.136718.3203125.205078.65625.205078 1.0078125v6.234375h2.15625v-6.234375c0-.6953125-.113281-1.3300781-.339844-1.9042969-.226562-.5742187-.535156-1.0644531-.925781-1.4707031s-.84961-.7265625-1.376953-.9609375c-.527344-.234375-1.087891-.3515625-1.681641-.3515625-.546875 0-1.015625.0644531-1.40625.1933594-.390625.1289062-.714844.2636718-.972656.4042968-.28125.1796876-.527344.3828126-.738281.609375l-.480469-1.0898437h-1.558594v10.8046875zm19.375299.1171875c.546875 0 1.015625-.0605469 1.40625-.1816406.390625-.1210938.714844-.2597657.972656-.4160157.28125-.171875.527344-.3710937.738282-.5976562l.480468 1.078125h1.558594v-15.1171875h-2.15625v5.4023437c-.203125-.2265624-.449219-.4296874-.738281-.609375-.257813-.140625-.570313-.2753906-.9375-.4042968-.367188-.1289063-.808594-.1933594-1.324219-.1933594-.71875 0-1.390625.1367188-2.015625.4101562-.625.2734376-1.173828.6542969-1.646484 1.1425782-.472656.4882812-.839844 1.0683594-1.101563 1.7402344-.261718.671875-.392578 1.4140624-.392578 2.2265624 0 .8203126.13086 1.5664063.392578 2.2382813.261719.671875.628907 1.2519531 1.101563 1.7402344.472656.4882812 1.021484.8671875 1.646484 1.1367187.625.2695313 1.296875.4042969 2.015625.4042969zm.117188-2.0390625c-.414063 0-.808594-.0839844-1.183594-.2519531-.375-.1679688-.707031-.4082031-.996094-.7207031-.289062-.3125-.517578-.6796876-.685547-1.1015626-.167968-.421875-.251953-.890625-.251953-1.40625 0-.5078124.083985-.9746093.251953-1.4003906.167969-.4257812.396485-.7949218.685547-1.1074218.289063-.3125.621094-.5527344.996094-.7207032.375-.1679687.769531-.2519531 1.183594-.2519531.414062 0 .810547.0839844 1.189453.2519531.378906.1679688.710937.4082032.996094.7207032.285156.3125.511718.6796874.679687 1.1015624s.251953.890625.251953 1.40625-.083984.984375-.251953 1.40625-.394531.7890626-.679687 1.1015626c-.285157.3125-.617188.5527343-.996094.7207031-.378906.1679687-.775391.2519531-1.189453.2519531zm12.447415 2.0390625c.625 0 1.189453-.0839844 1.693359-.2519531.503907-.1679688.947266-.4003906 1.330078-.6972656.382813-.296875.710938-.640625.984375-1.03125.273438-.390625.5-.8085938.679688-1.2539063h-2.285156c-.171875.234375-.451172.4921875-.837891.7734375s-.908203.421875-1.564453.421875c-.382813 0-.746094-.0683594-1.089844-.2050781-.34375-.1367188-.638672-.3203125-.884765-.5507813-.246094-.2304687-.451172-.4980468-.615235-.8027344-.164062-.3046874-.261719-.625-.292969-.9609374h7.6875c.015625-.078125.03125-.171875.046875-.28125.015625-.0859376.03125-.1894532.046875-.3105469.015625-.1210938.023438-.2441407.023438-.3691407 0-.8125-.132813-1.5546874-.398438-2.2265624s-.625-1.2519532-1.078125-1.7402344c-.453125-.4882813-.988281-.8691406-1.605468-1.1425782-.617188-.2734374-1.269532-.4101562-1.957032-.4101562s-1.339843.1367188-1.957031.4101562c-.617187.2734376-1.152344.6542969-1.605469 1.1425782-.453125.4882812-.8125 1.0683594-1.078125 1.7402344s-.398437 1.4140624-.398437 2.2265624c0 .8203126.132812 1.5664063.398437 2.2382813s.632813 1.2519531 1.101563 1.7402344c.46875.4882812 1.015625.8671875 1.640625 1.1367187.625.2695313 1.296875.4042969 2.015625.4042969zm2.882812-6.3515625h-5.765625c.132813-.7890625.447266-1.4277344.94336-1.9160156.496094-.4882813 1.103515-.7324219 1.822265-.7324219.851563 0 1.533204.2460937 2.044922.7382813.511719.4921874.830078 1.1289062.955078 1.9101562zm7.525541 6.3515625c1.265625 0 2.242187-.3183594 2.929687-.9550781.6875-.6367188 1.03125-1.4355469 1.03125-2.3964844 0-.640625-.144531-1.1503906-.433594-1.5292969-.289062-.3789062-.646484-.6796875-1.072265-.9023437-.425781-.2226563-.884766-.3945313-1.376953-.515625-.492188-.1210938-.951172-.2363282-1.376953-.3457032-.425782-.109375-.783204-.2480468-1.072266-.4160156-.289063-.1679687-.433594-.4121094-.433594-.7324218 0-.3046876.144531-.5820313.433594-.8320313.289062-.25.707031-.375 1.253906-.375.539063 0 .957031.1289063 1.253906.3867187.296875.2578126.476563.5703126.539063.9375h2.167969c-.070313-1.0234374-.431641-1.8398437-1.083985-2.4492187-.652343-.609375-1.611328-.9140625-2.876953-.9140625-.578125 0-1.095703.0839844-1.552734.2519531-.457031.1679688-.845703.4003907-1.166016.6972657-.320312.296875-.568359.6425781-.74414 1.0371093-.175782.3945313-.263672.8144531-.263672 1.2597657 0 .640625.144531 1.1484374.433593 1.5234374.289063.375.644532.6738282 1.066407.8964844.421875.2226563.880859.3945313 1.376953.515625.496094.1210938.957031.2382813 1.382812.3515625.425782.1132813.783203.2539063 1.072266.421875.289062.1679688.433594.4121094.433594.7324219 0 .3671875-.152344.6777344-.457032.9316406-.304687.2539063-.792968.3808594-1.464843.3808594-.609375 0-1.066407-.140625-1.371094-.421875-.304688-.28125-.488281-.6601562-.550781-1.1367188h-2.15625c.0625 1.1484376.425781 2.0351563 1.089843 2.6601563.664063.625 1.660157.9375 2.988282.9375zm7.045071-12.5976563c.367188 0 .679688-.1289062.9375-.3867187.257813-.2578125.386719-.5703125.386719-.9375s-.128906-.6777344-.386719-.9316406c-.257812-.2539063-.570312-.3808594-.9375-.3808594-.367187 0-.679687.1269531-.9375.3808594-.257812.2539062-.386718.5644531-.386718.9316406 0 .375.128906.6894531.386718.9433594.257813.2539062.570313.3808593.9375.3808593zm1.078125 12.4804688v-10.8046875h-2.15625v10.8046875zm7.173978 4.078125c.75 0 1.429688-.1113281 2.039063-.3339844.609375-.2226562 1.125-.5390625 1.546875-.9492187.421875-.4101563.75-.8945313.984375-1.453125.234375-.5585938.351562-1.1660157.351562-1.8222657v-10.3242187h-1.558594l-.480468 1.0898437c-.210938-.2265624-.460938-.4296874-.75-.609375-.25-.140625-.570313-.2753906-.960938-.4042968-.390625-.1289063-.859375-.1933594-1.40625-.1933594-.65625 0-1.285156.1367188-1.886719.4101562-.601562.2734376-1.126953.6464844-1.576172 1.1191407-.449218.4726562-.804687 1.0292969-1.066406 1.6699219s-.392578 1.3359374-.392578 2.0859374.130859 1.4453126.392578 2.0859376.617188 1.1972656 1.066406 1.6699218c.449219.4726563.97461.84375 1.576172 1.1132813.601563.2695312 1.230469.4042969 1.886719.4042969.507813 0 .945313-.0605469 1.3125-.1816407.367188-.1210937.679688-.2597656.9375-.4160156.289063-.171875.539063-.3710937.75-.5976563v1.078125c0 .78125-.248047 1.4160157-.744141 1.9042969-.496093.4882813-1.169921.7324219-2.021484.7324219-.71875 0-1.273437-.1484375-1.664062-.4453125s-.675782-.6289063-.855469-.9960937h-2.15625c.109375.453125.292969.8828124.550781 1.2890624.257813.40625.582031.7617188.972656 1.0664063s.84961.5488281 1.376953.7324219c.527344.1835937 1.119141.2753906 1.775391.2753906zm.023438-6.4804688c-.398438 0-.777344-.0839843-1.136719-.2519531-.359375-.1679687-.679688-.4003906-.960938-.6972656s-.505859-.640625-.673828-1.03125-.251953-.8085937-.251953-1.2539063c0-.453125.083984-.875.251953-1.265625s.388672-.734375.66211-1.03125c.273437-.296875.59375-.5292968.960937-.6972656.367188-.1679687.742188-.2519531 1.125-.2519531.382813 0 .757813.0839844 1.125.2519531.367188.1679688.6875.4003906.960938.6972656.273437.296875.49414.6425782.662109 1.0371094.167969.3945313.251953.8144532.251953 1.2597656 0 .4453126-.083984.8632813-.251953 1.2539063s-.388672.734375-.662109 1.03125c-.273438.296875-.589844.5292969-.949219.6972656-.359375.1679688-.730469.2519531-1.113281.2519531zm9.658352 2.4023438v-6.234375c0-.359375.06836-.6972656.205078-1.0136719.136719-.3164062.324219-.5957031.5625-.8378906.238282-.2421875.517579-.4355469.837891-.5800781.320313-.1445313.664063-.2167969 1.03125-.2167969.335938 0 .65625.0722656.960938.2167969.304687.1445312.574218.3378906.808593.5800781s.419922.5234375.556641.84375.205078.65625.205078 1.0078125v6.234375h2.15625v-6.234375c0-.6953125-.113281-1.3300781-.339844-1.9042969-.226562-.5742187-.535156-1.0644531-.925781-1.4707031s-.849609-.7265625-1.376953-.9609375-1.087891-.3515625-1.681641-.3515625c-.546875 0-1.015625.0644531-1.40625.1933594-.390625.1289062-.714843.2636718-.972656.4042968-.28125.1796876-.527344.3828126-.738281.609375l-.480469-1.0898437h-1.558594v10.8046875z" fill="#fff" fill-rule="nonzero"/></g></svg>