<svg height="953" viewBox="0 0 914 953" width="914" xmlns="http://www.w3.org/2000/svg"><g fill="none" fill-rule="evenodd"><path d="m0 0h914v953h-914z" fill="#ff4066"/><g transform="translate(130 150)"><path d="m511 518c0-214.838768-173.713517-389-388-389v389" fill="#ffc1c1" transform="matrix(-1 0 0 -1 634 647)"/><path d="m719 578c8.284271 0 15-6.715729 15-15s-6.715729-15-15-15" fill="#000"/><path d="m695 599c8.284271 0 15-6.715729 15-15s-6.715729-15-15-15" fill="#fff" transform="matrix(-1 0 0 -1 1405 1168)"/><path d="m0 0h15v51h-15z" fill="#fff"/><path d="m32 21h15v30h-15z" fill="#000"/></g><path d="m0 0h1v1h-1z" fill="#ff4066"/></g></svg>