<svg height="817" viewBox="0 0 784 817" width="784" xmlns="http://www.w3.org/2000/svg"><g fill="none" fill-rule="evenodd"><path d="m0 0h784v817h-784z" fill="#ffd753"/><path d="m171.450347 618.449653c6.682262 0 12.099306-5.596441 12.099306-12.499999 0-6.90356-5.417044-12.500001-12.099306-12.500001" stroke="#fff" stroke-width="14.369599" transform="matrix(0 -1 -1 0 783.449653 783.449653)"/><path d="m443 189v408c-112.113804 0-203-91.333911-203-204s90.886196-204 203-204z" fill="#ffeeb5"/><path d="m668 618v51c-13.807119 0-25-11.416739-25-25.5s11.192881-25.5 25-25.5z" fill="#5f14b2"/><path d="m668 583v29c-7.731986 0-14-6.491871-14-14.5s6.268014-14.5 14-14.5z" fill="#5f14b2"/><path d="m153 129h37v38c-20.434536 0-37-17.01318-37-38z" fill="#fa2629"/></g></svg>