<svg height="817" viewBox="0 0 784 817" width="784" xmlns="http://www.w3.org/2000/svg"><g fill="none" fill-rule="evenodd"><path d="m0 0h784v817h-784z" fill="#4c209a"/><path d="m636 161c16.568542 0 30-13.431458 30-30s-13.431458-30-30-30" fill="#1af5d8"/><path d="m616 148c8.836556 0 16-7.611159 16-17s-7.163444-17-16-17" fill="#1af5d8"/><path d="m107 641c0-14.359403-12.0883118-26-27-26v26" fill="#fff"/><path d="m392.974892 296.817908h261.629509c0 144.793786-117.009166 262.258616-261.629509 262.996505-.228484.003495-.456899.003204-.685246.002621-.228347.000583-.456762.000874-.685245.000874-144.620344-.741384-261.629509-118.206214-261.629509-263z" fill="#ff61bc" transform="matrix(-.70710678 -.70710678 -.70710678 .70710678 972.422708 402.790674)"/></g></svg>