<svg height="953" viewBox="0 0 914 953" width="914" xmlns="http://www.w3.org/2000/svg"><g fill="none" fill-rule="evenodd"><path d="m0 0h914v953h-914z" fill="#ffe5e5"/><path d="m815 225.686322c15.172542 0 27.472317-12.689665 27.472317-28.343161s-12.299775-28.343161-27.472317-28.343161" fill="#6935db" transform="matrix(-1 0 0 -1 1657.472318 394.686322)"/><path d="m849 215.571821c10.115028 0 18.314878-8.186881 18.314878-18.285911 0-10.099029-8.19985-18.28591-18.314878-18.28591" fill="#000"/><path d="m441.056408 346.807858h277c0 152.982876-124.017125 277-277 277-152.982876 0-277-124.017124-277-277z" fill="#6935db" transform="matrix(0 -1 -1 0 926.364266 926.364266)"/><path d="m5 745h18v45h-18z" fill="#fff"/><path d="m42 745h18v80h-18z" fill="#6935db"/></g></svg>