<svg height="15" viewBox="0 0 28 15" width="28" xmlns="http://www.w3.org/2000/svg"><g fill="#fff" fill-rule="evenodd" transform="translate(0 .62132)"><path d="m0 7.15685425 6.71751442-6.71751442c.58578644-.58578644 1.53553391-.58578644 2.12132034 0 .58578644.58578644.58578644 1.5355339 0 2.12132034l-4.59619407 4.59619408 4.59619407 4.59619405c.58578644.5857865.58578644 1.5355339 0 2.1213204-.58578643.5857864-1.5355339.5857864-2.12132034 0z"/><path d="m27.5563492 7.15685425-6.7175144 6.71751445c-.5857865.5857864-1.5355339.5857864-2.1213204 0-.5857864-.5857865-.5857864-1.5355339 0-2.1213204l4.5961941-4.59619405-4.5961941-4.59619408c-.5857864-.58578644-.5857864-1.5355339 0-2.12132034.5857865-.58578644 1.5355339-.58578644 2.1213204 0z"/></g></svg>