<?xml version="1.0" encoding="UTF-8"?>
<svg width="633px" height="817px" viewBox="0 0 633 817" version="1.1" xmlns="http://www.w3.org/2000/svg" xmlns:xlink="http://www.w3.org/1999/xlink">
    <!-- Generator: Sketch 53.2 (72643) - https://sketchapp.com -->
    <title>bold-bg</title>
    <desc>Created with Sketch.</desc>
    <g id="Page-1" stroke="none" stroke-width="1" fill="none" fill-rule="evenodd">
        <g id="1440" transform="translate(-404.000000, 0.000000)">
            <g id="bold-bg" transform="translate(404.000000, 0.000000)">
                <rect id="Rectangle-2-Copy-2" fill="#FFAC4F" x="0" y="0" width="633" height="817"></rect>
                <path d="M514.880383,615.775926 C514.880383,408.550506 337.244537,240.561111 118.119617,240.561111 L118.119617,615.775926" id="Path-Copy-7" fill="#FFE7C9" transform="translate(316.500000, 428.168519) rotate(-180.000000) translate(-316.500000, -428.168519) "></path>
                <path d="M516.95,128.260215 C529.574309,128.260215 539.808333,117.640698 539.808333,104.54086 C539.808333,91.4410223 529.574309,80.8215054 516.95,80.8215054" id="Path-Copy-2" fill="#FFFFFF" transform="translate(528.379167, 104.540860) rotate(-180.000000) translate(-528.379167, -104.540860) "></path>
                <path d="M545.083333,119.475269 C553.823239,119.475269 560.908333,112.788906 560.908333,104.54086 C560.908333,96.2928141 553.823239,89.6064516 545.083333,89.6064516" id="Path" fill="#FF4F4F"></path>
                <path d="M90.9775696,754.373059 C99.3334333,754.373059 106.107199,747.254066 106.107199,738.472342 C106.107199,729.690618 99.3334333,722.571624 90.9775696,722.571624" id="Path-Copy-2" stroke="#FFFFFF" stroke-width="11.745651" transform="translate(98.542384, 738.472342) rotate(-90.000000) translate(-98.542384, -738.472342) "></path>
            </g>
        </g>
    </g>
</svg>