<svg width="599" height="643" viewBox="0 0 599 643" fill="none" xmlns="http://www.w3.org/2000/svg">
<path fill-rule="evenodd" clip-rule="evenodd" d="M462.705 83.9562L294.793 83.9562L378.749 229.372L462.705 83.9562ZM461.337 84.7464L296.162 84.7464L378.749 227.792L461.337 84.7464Z" fill="#372FFF"/>
<path fill-rule="evenodd" clip-rule="evenodd" d="M216.385 83.9562L48.4724 83.9562L132.429 229.372L216.385 83.9562ZM215.016 84.7464L49.8412 84.7464L132.429 227.792L215.016 84.7464Z" fill="#372FFF"/>
<path fill-rule="evenodd" clip-rule="evenodd" d="M255.573 84.2959L171.617 229.712L339.529 229.712L255.573 84.2959ZM255.573 85.8764L172.986 228.922L338.161 228.922L255.573 85.8764Z" fill="#372FFF"/>
<path fill-rule="evenodd" clip-rule="evenodd" d="M501.537 84.2959L417.581 229.712L585.493 229.712L501.537 84.2959ZM501.537 85.8764L418.95 228.922L584.125 228.922L501.537 85.8764Z" fill="#372FFF"/>
<path fill-rule="evenodd" clip-rule="evenodd" d="M462.705 448.729L294.793 448.729L378.749 594.145L462.705 448.729ZM461.336 449.519L296.162 449.519L378.749 592.564L461.336 449.519Z" fill="#372FFF"/>
<path fill-rule="evenodd" clip-rule="evenodd" d="M216.384 448.729L48.4722 448.729L132.428 594.145L216.384 448.729ZM215.016 449.519L49.8409 449.519L132.428 592.564L215.016 449.519Z" fill="#372FFF"/>
<path fill-rule="evenodd" clip-rule="evenodd" d="M255.573 449.068L171.617 594.485H339.529L255.573 449.068ZM255.573 450.649L172.986 593.694H338.16L255.573 450.649Z" fill="#372FFF"/>
<path fill-rule="evenodd" clip-rule="evenodd" d="M501.542 449.068L417.586 594.485H585.498L501.542 449.068ZM501.542 450.649L418.955 593.694H584.129L501.542 450.649Z" fill="#372FFF"/>
<path fill-rule="evenodd" clip-rule="evenodd" d="M462.705 412.646L294.793 412.646L378.749 267.23L462.705 412.646ZM461.336 411.856L296.162 411.856L378.749 268.81L461.336 411.856Z" fill="#372FFF"/>
<path fill-rule="evenodd" clip-rule="evenodd" d="M216.384 412.646L48.4722 412.646L132.428 267.23L216.384 412.646ZM215.016 411.856L49.8409 411.856L132.428 268.81L215.016 411.856Z" fill="#372FFF"/>
<path fill-rule="evenodd" clip-rule="evenodd" d="M255.573 412.306L171.617 266.89H339.529L255.573 412.306ZM255.573 410.726L172.986 267.68H338.16L255.573 410.726Z" fill="#372FFF"/>
<path fill-rule="evenodd" clip-rule="evenodd" d="M501.542 412.306L417.586 266.89H585.498L501.542 412.306ZM501.542 410.726L418.955 267.68H584.129L501.542 410.726Z" fill="#372FFF"/>
</svg>
