<svg fill="none" height="953" viewBox="0 0 914 953" width="914" xmlns="http://www.w3.org/2000/svg"><path d="m311.536 585.639c-75.417-132.675-29.701-301.554 102.671-377.98l138.956 240.677-.413.239 138.002 239.026c-132.923 76.744-302.892 31.202-379.634-101.721z" fill="#372fff"/><ellipse cx="791.28" cy="211.219" fill="#ffb8a9" rx="17.9984" ry="18.1362" transform="matrix(0 -1 1 0 580.061 1002.499)"/><path clip-rule="evenodd" d="m791.275 229.217c-9.712 0-17.586-8.058-17.586-17.998s7.874-17.998 17.586-17.998" fill="#fa4b6a" fill-rule="evenodd"/><ellipse cx="73.7978" cy="739.068" fill="#372fff" rx="18.8115" ry="18.9555" transform="matrix(-1 0 0 -1 147.5956 1478.136)"/><path d="m73.7977 720.113c-10.3893 0-18.8115 8.487-18.8115 18.956 0 0 3.8446 6.068 18.8115 6.067 14.9669 0 18.8115-6.067 18.8115-6.067 0-10.469-8.4222-18.956-18.8115-18.956z" fill="#000"/><path d="m54.9862 687.951c0-10.469 8.4222-18.956 18.8115-18.956s18.8115 8.487 18.8115 18.956-8.4222 18.955-18.8115 18.955-18.8115-8.486-18.8115-18.955z" fill="#372fff"/></svg>